<?xml version="1.0" encoding="UTF-8"?>
<svg id="Layer_1" xmlns="http://www.w3.org/2000/svg" version="1.1" viewBox="0 0 127.6 141.7">
  <!-- Generator: Adobe Illustrator 29.1.0, SVG Export Plug-In . SVG Version: 2.1.0 Build 142)  -->
  <defs>
    <style>
      .st0 {
        stroke: #000;
        stroke-width: .2px;
      }

      .st0, .st1, .st2, .st3 {
        stroke-miterlimit: 10;
      }

      .st0, .st4 {
        fill: #767576;
      }

      .st1 {
        fill: none;
      }

      .st1, .st2, .st3 {
        stroke: #767576;
        stroke-width: .5px;
      }

      .st5 {
        isolation: isolate;
      }

      .st2 {
        fill: #f7941d;
      }

      .st6 {
        fill: #212120;
      }

      .st3 {
        fill: #bcbec0;
      }
    </style>
  </defs>
  <g id="scheme_w">
    <polyline class="st1" points="24.4 29.2 19.6 29.2 19.6 18.7 93 18.7 93 21.8"/>
    <polyline class="st1" points="24.3 63.2 15.8 63.2 15.9 14.2 110 14.2 110 43.4 93 43.4 93 55"/>
    <g class="st5">
      <g class="st5">
        <path class="st6" d="M94.9,19.5h0c0-.1,2.5-.1,2.5-.1h0c0,.1-2.5.1-2.5.1ZM96,20.6v-2.4h.1v2.4h-.1Z"/>
      </g>
      <g class="st5">
        <path class="st1" d="M94.9,19.5h0c0-.1,2.5-.1,2.5-.1h0c0,.1-2.5.1-2.5.1ZM96,20.6v-2.4h.1v2.4h-.1Z"/>
      </g>
    </g>
    <g class="st5">
      <g class="st5">
        <path class="st6" d="M95.3,28.5h0c0-.1,1.5-.1,1.5-.1h0c0,.1-1.5.1-1.5.1Z"/>
      </g>
      <g class="st5">
        <path class="st1" d="M95.3,28.5h0c0-.1,1.5-.1,1.5-.1h0c0,.1-1.5.1-1.5.1Z"/>
      </g>
    </g>
    <polyline class="st1" points="93 22.1 99.5 22.1 104.3 24.4"/>
    <polyline class="st1" points="93 26.6 99.5 26.6 104.3 24.4"/>
    <circle class="st1" cx="104.3" cy="24.4" r=".6"/>
    <polyline class="st1" points="83.9 29.8 93 29.8 93 26.9"/>
    <g class="st5">
      <g class="st5">
        <path class="st6" d="M94.9,52.9h0c0-.1,2.5-.1,2.5-.1h0c0,.1-2.5.1-2.5.1ZM96,54.1v-2.4h.1v2.4h-.1Z"/>
      </g>
      <g class="st5">
        <path class="st1" d="M94.9,52.9h0c0-.1,2.5-.1,2.5-.1h0c0,.1-2.5.1-2.5.1ZM96,54.1v-2.4h.1v2.4h-.1Z"/>
      </g>
    </g>
    <g class="st5">
      <g class="st5">
        <path class="st6" d="M95.3,62h0c0-.1,1.5-.1,1.5-.1h0c0,.1-1.5.1-1.5.1Z"/>
      </g>
      <g class="st5">
        <path class="st1" d="M95.3,62h0c0-.1,1.5-.1,1.5-.1h0c0,.1-1.5.1-1.5.1Z"/>
      </g>
    </g>
    <polyline class="st1" points="93 55.6 99.5 55.6 104.3 57.8"/>
    <polyline class="st1" points="93 60.1 99.5 60.1 104.3 57.8"/>
    <circle class="st1" cx="104.3" cy="57.8" r=".6"/>
    <polyline class="st1" points="83.9 63.2 93 63.2 93 60.4"/>
    <circle class="st1" cx="96.2" cy="33" r=".7"/>
    <circle class="st1" cx="96.2" cy="38.7" r=".7"/>
    <circle class="st1" cx="96.2" cy="35.9" r=".7"/>
    <circle class="st1" cx="96.1" cy="66.9" r=".7"/>
    <circle class="st1" cx="96.1" cy="72.6" r=".7"/>
    <circle class="st1" cx="96.1" cy="69.7" r=".7"/>
  </g>
  <g id="_Точки">
    <circle class="st4" cx="93" cy="22.1" r=".6"/>
    <circle class="st4" cx="93" cy="26.6" r=".6"/>
    <circle class="st4" cx="93" cy="55.6" r=".6"/>
    <circle class="st4" cx="93" cy="60.1" r=".6"/>
  </g>
  <g id="scheme">
    <rect class="st3" x="31.3" y="23.7" width="22.7" height="11.3"/>
    <rect class="st3" x="54" y="23.7" width="22.7" height="11.3"/>
    <rect class="st2" x="22.8" y="23.7" width="8.5" height="11.3"/>
    <rect class="st2" x="76.7" y="23.7" width="8.5" height="11.3"/>
    <rect class="st3" x="31.3" y="35" width="22.7" height="11.3"/>
    <rect class="st3" x="54" y="35" width="22.7" height="11.3"/>
    <rect class="st2" x="22.8" y="35" width="8.5" height="11.3"/>
    <rect class="st2" x="76.7" y="35" width="8.5" height="11.3"/>
    <rect class="st3" x="31.3" y="46.2" width="22.7" height="11.3"/>
    <rect class="st3" x="54" y="46.2" width="22.7" height="11.3"/>
    <rect class="st2" x="22.8" y="46.2" width="8.5" height="11.3"/>
    <rect class="st2" x="76.7" y="46.2" width="8.5" height="11.3"/>
    <rect class="st3" x="31.3" y="57.5" width="22.7" height="11.3"/>
    <rect class="st3" x="54" y="57.5" width="22.7" height="11.3"/>
    <rect class="st2" x="22.8" y="57.5" width="8.5" height="11.3"/>
    <rect class="st2" x="76.7" y="57.5" width="8.5" height="11.3"/>
    <rect class="st3" x="31.3" y="68.7" width="22.7" height="11.3"/>
    <rect class="st3" x="54" y="68.7" width="22.7" height="11.3"/>
    <rect class="st2" x="22.8" y="68.7" width="8.5" height="11.3"/>
    <rect class="st2" x="76.7" y="68.7" width="8.5" height="11.3"/>
    <rect class="st3" x="31.3" y="80" width="22.7" height="11.3"/>
    <rect class="st3" x="54" y="80" width="22.7" height="11.3"/>
    <rect class="st2" x="22.8" y="80" width="8.5" height="11.3"/>
    <rect class="st2" x="76.7" y="80" width="8.5" height="11.3"/>
    <rect class="st3" x="31.3" y="91.3" width="22.7" height="11.3"/>
    <rect class="st3" x="54" y="91.3" width="22.7" height="11.3"/>
    <rect class="st2" x="22.8" y="91.3" width="8.5" height="11.3"/>
    <rect class="st2" x="76.7" y="91.3" width="8.5" height="11.3"/>
    <rect class="st3" x="31.3" y="102.7" width="22.7" height="11.3"/>
    <rect class="st3" x="54" y="102.7" width="22.7" height="11.3"/>
    <rect class="st2" x="22.8" y="102.7" width="8.5" height="11.3"/>
    <rect class="st2" x="76.7" y="102.7" width="8.5" height="11.3"/>
    <rect class="st3" x="31.3" y="114" width="22.7" height="11.3"/>
    <rect class="st3" x="54" y="114" width="22.7" height="11.3"/>
    <rect class="st2" x="22.8" y="114" width="8.5" height="11.3"/>
    <rect class="st2" x="76.7" y="114" width="8.5" height="11.3"/>
  </g>
  <g id="scheme_letters">
    <g class="st5">
      <g class="st5">
        <path class="st0" d="M37.6,31.6v-4.1h-1.6c0-.1,3.2-.1,3.2-.1h0c0,.1-1.6.1-1.6.1v4.1h-.1Z"/>
        <path class="st0" d="M41.8,31.6c-.3,0-.6,0-.9-.2-.3-.1-.5-.3-.7-.4-.2-.2-.3-.4-.5-.7-.1-.3-.2-.5-.2-.8s0-.6.2-.8c.1-.3.3-.5.5-.7.2-.2.4-.3.7-.4.3-.1.5-.2.9-.2s.5,0,.8.1.5.2.6.4h0c-.2-.1-.4-.2-.6-.3-.2,0-.5-.1-.7-.1s-.6,0-.8.2c-.2.1-.5.2-.6.4-.2.2-.3.4-.4.6-.1.2-.2.5-.2.8s0,.5.2.8c.1.2.2.5.4.6.2.2.4.3.6.4s.5.2.8.2.5,0,.7-.1c.2,0,.4-.2.6-.4h0c-.2.3-.4.4-.6.5s-.5.1-.8.1Z"/>
        <path class="st0" d="M44.7,31.6v-4.1h0s-1.1,0-1.1,0h0c0-.1,1.2-.1,1.2-.1v4.2h-.1Z"/>
        <path class="st0" d="M46.1,29.5h0c0-.1,2.5-.1,2.5-.1h0c0,.1-2.5.1-2.5.1ZM47.2,30.7v-2.4h.1v2.4h-.1Z"/>
      </g>
    </g>
    <g class="st5">
      <g class="st5">
        <path class="st0" d="M27,31.5v-4.1h0s-1.1,0-1.1,0h0c0-.1,1.2-.1,1.2-.1v4.2h-.1Z"/>
      </g>
    </g>
    <g class="st5">
      <g class="st5">
        <path class="st0" d="M79.6,31.5h0c0,0,1.8-1.9,1.8-1.9.2-.2.3-.3.4-.5,0-.1.2-.3.2-.4s0-.2,0-.4c0-.3,0-.5-.3-.7s-.5-.3-.9-.3-.5,0-.8.1-.4.2-.5.4h0c.2-.3.3-.4.6-.5.2,0,.5-.1.8-.1s.5,0,.7.1.3.2.4.4c.1.2.2.4.2.6s0,.3,0,.4-.1.3-.2.4c0,.1-.2.3-.4.5l-1.8,1.8h0s2.7,0,2.7,0h0c0,.1-2.8.1-2.8.1Z"/>
      </g>
    </g>
    <g class="st5">
      <g class="st5">
        <path class="st0" d="M61.2,31.5v-4.1h-1.6c0-.1,3.2-.1,3.2-.1h0c0,.1-1.6.1-1.6.1v4.1h-.1Z"/>
        <path class="st0" d="M65.4,31.5c-.3,0-.6,0-.9-.2-.3-.1-.5-.3-.7-.4-.2-.2-.3-.4-.5-.7s-.2-.5-.2-.8,0-.6.2-.8c.1-.3.3-.5.5-.7.2-.2.4-.3.7-.4.3-.1.5-.2.9-.2s.5,0,.8.1.5.2.6.4h0c-.2-.1-.4-.2-.6-.3-.2,0-.5-.1-.7-.1s-.6,0-.8.2c-.2.1-.5.2-.6.4-.2.2-.3.4-.4.6s-.2.5-.2.8,0,.5.2.8c.1.2.2.5.4.6.2.2.4.3.6.4s.5.2.8.2.5,0,.7-.1c.2,0,.4-.2.6-.4h0c-.2.3-.4.4-.6.5s-.5.1-.8.1Z"/>
        <path class="st0" d="M68.3,31.5v-4.1h0s-1.1,0-1.1,0h0c0-.1,1.2-.1,1.2-.1v4.2h-.1Z"/>
        <path class="st0" d="M69.6,29.9h0c0-.1,1.5-.1,1.5-.1h0c0,.1-1.5.1-1.5.1Z"/>
      </g>
    </g>
    <g class="st5">
      <g class="st5">
        <path class="st0" d="M37,42.9v-4.1h-1.6c0-.1,3.2-.1,3.2-.1h0c0,.1-1.6.1-1.6.1v4.1h-.1Z"/>
        <path class="st0" d="M41.2,42.9c-.3,0-.6,0-.9-.2-.3-.1-.5-.3-.7-.4-.2-.2-.3-.4-.5-.7s-.2-.5-.2-.8,0-.6.2-.8c.1-.3.3-.5.5-.7.2-.2.4-.3.7-.4.3-.1.5-.2.9-.2s.5,0,.8.1.5.2.6.4h0c-.2-.1-.4-.2-.6-.3s-.5-.1-.7-.1-.6,0-.8.2c-.2.1-.5.2-.6.4-.2.2-.3.4-.4.6s-.2.5-.2.8,0,.5.2.8c.1.2.2.5.4.6.2.2.4.3.6.4s.5.2.8.2.5,0,.7-.1.4-.2.6-.4h0c-.2.3-.4.4-.6.5s-.5.1-.8.1Z"/>
        <path class="st0" d="M43.2,42.9h0c0,0,1.8-1.9,1.8-1.9.2-.2.3-.3.4-.5,0-.1.2-.3.2-.4s0-.2,0-.4c0-.3,0-.5-.3-.7s-.5-.3-.9-.3-.5,0-.8.1-.4.2-.5.4h0c.2-.3.3-.4.6-.5s.5-.1.8-.1.5,0,.7.1c.2,0,.3.2.4.4s.2.4.2.6,0,.3,0,.4c0,.1-.1.3-.2.4,0,.1-.2.3-.4.5l-1.8,1.8h0s2.7,0,2.7,0h0c0,.1-2.8.1-2.8.1Z"/>
        <path class="st0" d="M46.7,40.9h0c0-.1,2.5-.1,2.5-.1h0c0,.1-2.5.1-2.5.1ZM47.9,42v-2.4h.1v2.4h-.1Z"/>
      </g>
    </g>
    <g class="st5">
      <g class="st5">
        <path class="st0" d="M26.6,42.8c-.3,0-.5,0-.7-.2s-.4-.3-.5-.4h0c0,0,.2.2.4.3.2.1.4.2.7.2s.6,0,.8-.3c.2-.2.3-.4.3-.8s0-.6-.3-.8c-.2-.2-.5-.3-.8-.3h-.2c0,0,1.2-1.9,1.2-1.9h0s-2,0-2,0h0c0-.1,2.1-.1,2.1-.1h0c0,0-1.2,1.9-1.2,1.9h0s0,0,0,0c.4,0,.7.1.9.3.2.2.3.5.3.8s0,.4-.1.6c0,.2-.2.3-.4.4-.2,0-.4.1-.6.1Z"/>
      </g>
    </g>
    <g class="st5">
      <g class="st5">
        <path class="st0" d="M79.3,41.6h0c0,0,2.4-3,2.4-3h.1l-2.4,2.9h0s3.4,0,3.4,0h0c0,.1-3.5.1-3.5.1ZM81.7,42.8v-1.2h0v-1.2h.1v2.5h-.1Z"/>
      </g>
    </g>
    <g class="st5">
      <g class="st5">
        <path class="st0" d="M60.6,42.8v-4.1h-1.6c0-.1,3.2-.1,3.2-.1h0c0,.1-1.6.1-1.6.1v4.1h-.1Z"/>
        <path class="st0" d="M64.8,42.8c-.3,0-.6,0-.9-.2-.3-.1-.5-.3-.7-.4-.2-.2-.3-.4-.5-.7s-.2-.5-.2-.8,0-.6.2-.8c.1-.3.3-.5.5-.7.2-.2.4-.3.7-.4.3-.1.5-.2.9-.2s.5,0,.8.1.5.2.6.4h0c-.2-.1-.4-.2-.6-.3s-.5-.1-.7-.1-.6,0-.8.2c-.2.1-.5.2-.6.4-.2.2-.3.4-.4.6s-.2.5-.2.8,0,.5.2.8c.1.2.2.5.4.6.2.2.4.3.6.4s.5.2.8.2.5,0,.7-.1.4-.2.6-.4h0c-.2.3-.4.4-.6.5s-.5.1-.8.1Z"/>
        <path class="st0" d="M66.8,42.8h0c0,0,1.8-1.9,1.8-1.9.2-.2.3-.3.4-.5,0-.1.2-.3.2-.4,0-.1,0-.2,0-.4,0-.3,0-.5-.3-.7-.2-.2-.5-.3-.9-.3s-.5,0-.8.1c-.2,0-.4.2-.5.4h0c.2-.3.3-.4.6-.5.2,0,.5-.1.8-.1s.5,0,.7.1.3.2.4.4.2.4.2.6,0,.3,0,.4c0,.1-.1.3-.2.4,0,.1-.2.3-.4.5l-1.8,1.8h0s2.7,0,2.7,0h0c0,.1-2.8.1-2.8.1Z"/>
        <path class="st0" d="M70.3,41.3h0c0-.1,1.5-.1,1.5-.1h0c0,.1-1.5.1-1.5.1Z"/>
      </g>
    </g>
    <g class="st5">
      <g class="st5">
        <path class="st0" d="M37,54.1v-4.1h-1.6c0-.1,3.2-.1,3.2-.1h0c0,.1-1.6.1-1.6.1v4.1h-.1Z"/>
        <path class="st0" d="M41.2,54.1c-.3,0-.6,0-.9-.2-.3-.1-.5-.3-.7-.4-.2-.2-.3-.4-.5-.7s-.2-.5-.2-.8,0-.6.2-.8c.1-.3.3-.5.5-.7.2-.2.4-.3.7-.4.3-.1.5-.2.9-.2s.5,0,.8.1.5.2.6.4h0c-.2-.1-.4-.2-.6-.3s-.5-.1-.7-.1-.6,0-.8.2c-.2.1-.5.2-.6.4-.2.2-.3.4-.4.6s-.2.5-.2.8,0,.5.2.8c.1.2.2.5.4.6.2.2.4.3.6.4s.5.2.8.2.5,0,.7-.1.4-.2.6-.4h0c-.2.3-.4.4-.6.5s-.5.1-.8.1Z"/>
        <path class="st0" d="M44.5,54.1c-.3,0-.6,0-.9-.2-.3-.1-.5-.3-.6-.4h0c.1,0,.3.2.5.3.2.1.5.2.8.2s.7,0,.9-.3c.2-.2.3-.4.3-.8s-.1-.6-.3-.8c-.2-.2-.6-.3-1-.3h-.2c0,0,1.4-1.9,1.4-1.9h0s-2.4,0-2.4,0h0c0-.1,2.5-.1,2.5-.1h0c0,0-1.4,1.9-1.4,1.9h0s0,0,0,0c.5,0,.9.1,1.1.3.2.2.4.5.4.8s0,.4-.2.6-.3.3-.5.4-.5.1-.8.1Z"/>
        <path class="st0" d="M46.7,52h0c0-.1,2.5-.1,2.5-.1h0c0,.1-2.5.1-2.5.1ZM47.9,53.2v-2.4h.1v2.4h-.1Z"/>
      </g>
    </g>
    <g class="st5">
      <g class="st5">
        <path class="st0" d="M26.8,54c-.3,0-.6,0-.8-.2-.3-.1-.5-.3-.6-.4h0c.1,0,.3.2.5.3.2.1.5.2.8.2.4,0,.8-.1,1-.3s.3-.5.3-.8,0-.4-.2-.6-.3-.3-.5-.4c-.2,0-.6-.1-1-.1h-.8l.2-1.9h2.1c0,.1-2.1.1-2.1.1h0s-.2,1.8-.2,1.8h0c0,0,.7,0,.7,0,.4,0,.8,0,1,.1.3,0,.4.2.5.4.1.2.2.4.2.6s0,.4-.2.6c-.1.2-.3.3-.5.4-.2.1-.5.2-.8.2Z"/>
      </g>
    </g>
    <g class="st5">
      <g class="st5">
        <path class="st0" d="M81.2,54c-.4,0-.7,0-.9-.3s-.4-.4-.5-.7c-.1-.3-.2-.7-.2-1.1s0-.9.2-1.2c.1-.3.4-.5.6-.7.3-.2.6-.2.9-.2s.3,0,.5,0c.2,0,.3,0,.4.2h0c-.1,0-.2,0-.4,0-.1,0-.3,0-.5,0-.5,0-.9.2-1.2.5-.3.3-.5.8-.5,1.5s0,.2,0,.4c0,.2,0,.3,0,.5h0c0-.2,0-.4.2-.6.1-.2.3-.3.5-.4.2,0,.4-.1.7-.1s.5,0,.7.1c.2.1.4.2.5.4.1.2.2.4.2.6s0,.5-.2.6c-.1.2-.3.3-.5.4-.2.1-.4.2-.7.2ZM81.2,53.9c.2,0,.5,0,.6-.1.2,0,.3-.2.4-.4s.2-.4.2-.6c0-.3-.1-.6-.3-.8-.2-.2-.5-.3-.9-.3s-.5,0-.7.2c-.2,0-.3.2-.5.4-.1.2-.2.4-.2.6s0,.3.1.5c.1.2.2.3.4.4.2.1.4.2.7.2Z"/>
      </g>
    </g>
    <g class="st5">
      <g class="st5">
        <path class="st0" d="M60.6,54v-4.1h-1.6c0-.1,3.2-.1,3.2-.1h0c0,.1-1.6.1-1.6.1v4.1h-.1Z"/>
        <path class="st0" d="M64.8,54c-.3,0-.6,0-.9-.2-.3-.1-.5-.3-.7-.4-.2-.2-.3-.4-.5-.7-.1-.3-.2-.5-.2-.8s0-.6.2-.8c.1-.3.3-.5.5-.7.2-.2.4-.3.7-.4.3-.1.5-.2.9-.2s.5,0,.8.1.5.2.6.4h0c-.2-.1-.4-.2-.6-.3-.2,0-.5-.1-.7-.1s-.6,0-.8.2c-.2.1-.5.2-.6.4-.2.2-.3.4-.4.6-.1.2-.2.5-.2.8s0,.5.2.8c.1.2.2.5.4.6.2.2.4.3.6.4s.5.2.8.2.5,0,.7-.1c.2,0,.4-.2.6-.4h0c-.2.3-.4.4-.6.5s-.5.1-.8.1Z"/>
        <path class="st0" d="M68.1,54c-.3,0-.6,0-.9-.2-.3-.1-.5-.3-.6-.4h0c.1,0,.3.2.5.3.2.1.5.2.8.2s.7,0,.9-.3c.2-.2.3-.4.3-.8s-.1-.6-.3-.8c-.2-.2-.6-.3-1-.3h-.2c0,0,1.4-1.9,1.4-1.9h0s-2.4,0-2.4,0h0c0-.1,2.5-.1,2.5-.1h0c0,0-1.4,1.9-1.4,1.9h0s0,0,0,0c.5,0,.9.1,1.1.3.2.2.4.5.4.8s0,.4-.2.6c-.1.2-.3.3-.5.4s-.5.1-.8.1Z"/>
        <path class="st0" d="M70.2,52.4h0c0-.1,1.5-.1,1.5-.1h0c0,.1-1.5.1-1.5.1Z"/>
      </g>
    </g>
    <g class="st5">
      <g class="st5">
        <path class="st0" d="M36.7,65.4v-4.1h-1.6c0-.1,3.2-.1,3.2-.1h0c0,.1-1.6.1-1.6.1v4.1h-.1Z"/>
        <path class="st0" d="M40.9,65.4c-.3,0-.6,0-.9-.2-.3-.1-.5-.3-.7-.4-.2-.2-.3-.4-.5-.7s-.2-.5-.2-.8,0-.6.2-.8c.1-.3.3-.5.5-.7.2-.2.4-.3.7-.4.3-.1.5-.2.9-.2s.5,0,.8.1.5.2.6.4h0c-.2-.1-.4-.2-.6-.3s-.5-.1-.7-.1-.6,0-.8.2c-.2.1-.5.2-.6.4-.2.2-.3.4-.4.6s-.2.5-.2.8,0,.5.2.8c.1.2.2.5.4.6.2.2.4.3.6.4s.5.2.8.2.5,0,.7-.1.4-.2.6-.4h0c-.2.3-.4.4-.6.5s-.5.1-.8.1Z"/>
        <path class="st0" d="M42.9,64.2h0c0,0,2.4-3,2.4-3h.1l-2.4,2.9h0s3.4,0,3.4,0h0c0,.1-3.5.1-3.5.1ZM45.4,65.4v-1.2h0v-1.2h.1v2.5h-.1Z"/>
        <path class="st0" d="M47,63.4h0c0-.1,2.5-.1,2.5-.1h0c0,.1-2.5.1-2.5.1ZM48.1,64.5v-2.4h.1v2.4h-.1Z"/>
      </g>
    </g>
    <g class="st5">
      <g class="st5">
        <path class="st0" d="M26.3,65.3l1.9-4.1h0s-2.8,0-2.8,0h0s0,.8,0,.8h-.1v-1h2.9c0,0-1.9,4.2-1.9,4.2h-.1Z"/>
      </g>
    </g>
    <g class="st5">
      <g class="st5">
        <path class="st0" d="M81,65.3c-.3,0-.6,0-.8-.1-.2,0-.4-.2-.5-.4-.1-.2-.2-.4-.2-.6s0-.4.2-.6c.1-.2.3-.3.5-.4.2,0,.5-.1.8-.1s.6,0,.8.1c.2,0,.4.2.5.4s.2.4.2.6,0,.4-.2.6-.3.3-.5.4-.5.1-.8.1ZM81,65.2c.5,0,.8,0,1.1-.3.2-.2.4-.4.4-.8s-.1-.6-.4-.7c-.2-.2-.6-.3-1.1-.3s-.8,0-1,.3c-.2.2-.4.4-.4.7s.1.6.4.8c.2.2.6.3,1,.3ZM81,63.1c-.3,0-.5,0-.8-.1s-.4-.2-.5-.4c-.1-.2-.2-.3-.2-.5s0-.4.2-.6c.1-.2.3-.3.5-.4s.5-.1.7-.1.5,0,.7.1.4.2.5.4c.1.2.2.3.2.6s0,.4-.2.5c-.1.2-.3.3-.5.4s-.5.1-.8.1ZM81,63c.4,0,.7,0,.9-.2.2-.2.3-.4.3-.7s-.1-.5-.3-.7c-.2-.2-.5-.3-.9-.3s-.7,0-.9.3c-.2.2-.3.4-.3.7s.1.5.3.7c.2.2.5.3.9.3Z"/>
      </g>
    </g>
    <g class="st5">
      <g class="st5">
        <path class="st0" d="M59.8,65.3v-4.1h-1.6c0-.1,3.2-.1,3.2-.1h0c0,.1-1.6.1-1.6.1v4.1h-.1Z"/>
        <path class="st0" d="M64,65.3c-.3,0-.6,0-.9-.2-.3-.1-.5-.3-.7-.4-.2-.2-.3-.4-.5-.7s-.2-.5-.2-.8,0-.6.2-.8c.1-.3.3-.5.5-.7.2-.2.4-.3.7-.4.3-.1.5-.2.9-.2s.5,0,.8.1.5.2.6.4h0c-.2-.1-.4-.2-.6-.3s-.5-.1-.7-.1-.6,0-.8.2c-.2.1-.5.2-.6.4-.2.2-.3.4-.4.6s-.2.5-.2.8,0,.5.2.8c.1.2.2.5.4.6.2.2.4.3.6.4s.5.2.8.2.5,0,.7-.1.4-.2.6-.4h0c-.2.3-.4.4-.6.5s-.5.1-.8.1Z"/>
        <path class="st0" d="M66,64.1h0c0,0,2.4-3,2.4-3h.1l-2.4,2.9h0s3.4,0,3.4,0h0c0,.1-3.5.1-3.5.1ZM68.5,65.3v-1.2h0v-1.2h.1v2.5h-.1Z"/>
        <path class="st0" d="M70,63.8h0c0-.1,1.5-.1,1.5-.1h0c0,.1-1.5.1-1.5.1Z"/>
      </g>
    </g>
    <g class="st5">
      <g class="st5">
        <path class="st0" d="M37,76.6v-4.1h-1.6c0-.1,3.2-.1,3.2-.1h0c0,.1-1.6.1-1.6.1v4.1h-.1Z"/>
        <path class="st0" d="M41.2,76.6c-.3,0-.6,0-.9-.2-.3-.1-.5-.3-.7-.4-.2-.2-.3-.4-.5-.7s-.2-.5-.2-.8,0-.6.2-.8.3-.5.5-.7c.2-.2.4-.3.7-.4.3-.1.5-.2.9-.2s.5,0,.8.1.5.2.6.4h0c-.2,0-.4-.2-.6-.3s-.5-.1-.7-.1-.6,0-.8.2c-.2.1-.5.2-.6.4-.2.2-.3.4-.4.6s-.2.5-.2.8,0,.5.2.8.2.5.4.6c.2.2.4.3.6.4s.5.2.8.2.5,0,.7-.1.4-.2.6-.4h0c-.2.3-.4.4-.6.5s-.5.1-.8.1Z"/>
        <path class="st0" d="M44.6,76.6c-.3,0-.6,0-.8-.2-.3-.1-.5-.3-.6-.4h0c.1,0,.3.2.5.3.2.1.5.2.8.2.4,0,.8-.1,1-.3.2-.2.3-.5.3-.8s0-.4-.2-.6-.3-.3-.5-.4c-.2,0-.6-.1-1-.1h-.8l.2-1.9h2.1c0,.1-2.1.1-2.1.1h0s-.2,1.8-.2,1.8h0c0,0,.7,0,.7,0,.4,0,.8,0,1,.1.3,0,.4.2.5.4.1.2.2.4.2.6s0,.4-.2.6-.3.3-.5.4c-.2.1-.5.2-.8.2Z"/>
        <path class="st0" d="M46.7,74.5h0c0-.1,2.5-.1,2.5-.1h0c0,.1-2.5.1-2.5.1ZM47.9,75.7v-2.4h.1v2.4h-.1Z"/>
      </g>
    </g>
    <g class="st5">
      <g class="st5">
        <path class="st0" d="M26.6,72.2c.4,0,.7,0,.9.3.2.2.4.4.5.7.1.3.2.7.2,1.1s0,.9-.2,1.2c-.1.3-.4.5-.6.7-.3.2-.6.2-.9.2s-.3,0-.5,0c-.2,0-.3,0-.4-.2h0c.1,0,.2,0,.4,0,.1,0,.3,0,.5,0,.5,0,.9-.2,1.2-.5.3-.3.5-.8.5-1.5s0-.2,0-.4c0-.2,0-.3,0-.5h0c0,.2,0,.4-.2.6-.1.2-.3.3-.5.4s-.4.2-.7.2-.5,0-.7-.2-.4-.2-.5-.4c-.1-.2-.2-.4-.2-.6s0-.5.2-.6c.1-.2.3-.3.5-.4.2-.1.4-.2.7-.2ZM26.6,72.4c-.2,0-.5,0-.6.1-.2,0-.3.2-.4.4s-.2.4-.2.6c0,.3.1.6.3.8.2.2.5.3.9.3s.5,0,.7-.2c.2,0,.3-.2.5-.4s.2-.4.2-.6,0-.3-.1-.5c-.1-.2-.2-.3-.4-.4-.2-.1-.4-.2-.7-.2Z"/>
      </g>
    </g>
    <g class="st5">
      <g class="st5">
        <path class="st0" d="M79.1,76.5v-4.1h0s-1.1,0-1.1,0h0c0-.1,1.2-.1,1.2-.1v4.2h-.1Z"/>
        <path class="st0" d="M82,76.5c-.3,0-.6,0-.8-.3-.2-.2-.4-.4-.6-.7-.1-.3-.2-.7-.2-1.1s0-.8.2-1.1c.1-.3.3-.6.6-.7.2-.2.5-.3.8-.3s.6,0,.8.3.4.4.6.7c.1.3.2.7.2,1.1s0,.8-.2,1.1c-.1.3-.3.6-.6.7s-.5.3-.8.3ZM82,76.4c.3,0,.6,0,.8-.2.2-.2.4-.4.5-.7s.2-.7.2-1.1,0-.8-.2-1.1-.3-.5-.5-.7c-.2-.2-.5-.2-.8-.2s-.6,0-.8.2c-.2.2-.4.4-.5.7s-.2.7-.2,1.1,0,.8.2,1.1.3.5.5.7.5.2.8.2Z"/>
      </g>
    </g>
    <g class="st5">
      <g class="st5">
        <path class="st0" d="M60.3,76.5v-4.1h-1.6c0-.1,3.2-.1,3.2-.1h0c0,.1-1.6.1-1.6.1v4.1h-.1Z"/>
        <path class="st0" d="M64.5,76.5c-.3,0-.6,0-.9-.2-.3-.1-.5-.3-.7-.4-.2-.2-.3-.4-.5-.7s-.2-.5-.2-.8,0-.6.2-.8c.1-.3.3-.5.5-.7.2-.2.4-.3.7-.4.3-.1.5-.2.9-.2s.5,0,.8.1.5.2.6.4h0c-.2-.1-.4-.2-.6-.3-.2,0-.5-.1-.7-.1s-.6,0-.8.2c-.2.1-.5.2-.6.4-.2.2-.3.4-.4.6s-.2.5-.2.8,0,.5.2.8c.1.2.2.5.4.6.2.2.4.3.6.4s.5.2.8.2.5,0,.7-.1c.2,0,.4-.2.6-.4h0c-.2.3-.4.4-.6.5s-.5.1-.8.1Z"/>
        <path class="st0" d="M67.8,76.5c-.3,0-.6,0-.8-.2-.3-.1-.5-.3-.6-.4h0c.1,0,.3.2.5.3.2.1.5.2.8.2.4,0,.8-.1,1-.3s.3-.5.3-.8,0-.4-.2-.6c-.1-.2-.3-.3-.5-.4s-.6-.1-1-.1h-.8l.2-1.9h2.1c0,.1-2.1.1-2.1.1h0s-.2,1.8-.2,1.8h0c0,0,.7,0,.7,0,.4,0,.8,0,1,.1.3,0,.4.2.5.4.1.2.2.4.2.6s0,.4-.2.6c-.1.2-.3.3-.5.4-.2.1-.5.2-.8.2Z"/>
        <path class="st0" d="M69.9,74.9h0c0-.1,1.5-.1,1.5-.1h0c0,.1-1.5.1-1.5.1Z"/>
      </g>
    </g>
    <g class="st5">
      <g class="st5">
        <path class="st0" d="M36.9,87.9v-4.1h-1.6c0-.1,3.2-.1,3.2-.1h0c0,.1-1.6.1-1.6.1v4.1h-.1Z"/>
        <path class="st0" d="M41.1,87.9c-.3,0-.6,0-.9-.2-.3-.1-.5-.3-.7-.4-.2-.2-.3-.4-.5-.7s-.2-.5-.2-.8,0-.6.2-.8c.1-.3.3-.5.5-.7.2-.2.4-.3.7-.4.3-.1.5-.2.9-.2s.5,0,.8.1.5.2.6.4h0c-.2-.1-.4-.2-.6-.3s-.5-.1-.7-.1-.6,0-.8.2c-.2.1-.5.2-.6.4-.2.2-.3.4-.4.6s-.2.5-.2.8,0,.5.2.8c.1.2.2.5.4.6.2.2.4.3.6.4s.5.2.8.2.5,0,.7-.1.4-.2.6-.4h0c-.2.3-.4.4-.6.5s-.5.1-.8.1Z"/>
        <path class="st0" d="M44.8,87.9c-.4,0-.7,0-.9-.3s-.4-.4-.5-.7c-.1-.3-.2-.7-.2-1.1s0-.9.2-1.2c.1-.3.4-.5.6-.7.3-.2.6-.2.9-.2s.3,0,.5,0c.2,0,.3,0,.4.2h0c-.1,0-.2,0-.4,0-.1,0-.3,0-.5,0-.5,0-.9.2-1.2.5-.3.3-.5.8-.5,1.5s0,.2,0,.4c0,.2,0,.3,0,.5h0c0-.2,0-.4.2-.6.1-.2.3-.3.5-.4.2,0,.4-.1.7-.1s.5,0,.7.1c.2.1.4.2.5.4.1.2.2.4.2.6s0,.5-.2.6c-.1.2-.3.3-.5.4-.2.1-.4.2-.7.2ZM44.8,87.8c.2,0,.5,0,.6-.1.2,0,.3-.2.4-.4.1-.2.2-.4.2-.6,0-.3-.1-.6-.3-.8-.2-.2-.5-.3-.9-.3s-.5,0-.7.2-.3.2-.5.4c-.1.2-.2.4-.2.6s0,.3.1.5.2.3.4.4c.2.1.4.2.7.2Z"/>
        <path class="st0" d="M46.8,85.9h0c0-.1,2.5-.1,2.5-.1h0c0,.1-2.5.1-2.5.1ZM48,87v-2.4h.1v2.4h-.1Z"/>
      </g>
    </g>
    <g class="st5">
      <g class="st5">
        <path class="st0" d="M25.9,87.8v-4.1h0s-1.1,0-1.1,0h0c0-.1,1.2-.1,1.2-.1v4.2h-.1Z"/>
        <path class="st0" d="M27.9,87.8v-4.1h0s-1.1,0-1.1,0h0c0-.1,1.2-.1,1.2-.1v4.2h-.1Z"/>
      </g>
    </g>
    <g class="st5">
      <g class="st5">
        <path class="st0" d="M79.4,87.8v-4.1h0s-1.1,0-1.1,0h0c0-.1,1.2-.1,1.2-.1v4.2h-.1Z"/>
        <path class="st0" d="M80.5,87.8h0c0,0,1.8-1.9,1.8-1.9.2-.2.3-.3.4-.5,0-.1.2-.3.2-.4,0-.1,0-.2,0-.4,0-.3,0-.5-.3-.7-.2-.2-.5-.3-.9-.3s-.5,0-.8.1c-.2,0-.4.2-.5.4h0c.2-.3.3-.4.6-.5.2,0,.5-.1.8-.1s.5,0,.7.1.3.2.4.4.2.4.2.6,0,.3,0,.4c0,.1-.1.3-.2.4,0,.1-.2.3-.4.5l-1.8,1.8h0s2.7,0,2.7,0h0c0,.1-2.8.1-2.8.1Z"/>
      </g>
    </g>
    <g class="st5">
      <g class="st5">
        <path class="st0" d="M60.4,87.8v-4.1h-1.6c0-.1,3.2-.1,3.2-.1h0c0,.1-1.6.1-1.6.1v4.1h-.1Z"/>
        <path class="st0" d="M64.7,87.8c-.3,0-.6,0-.9-.2-.3-.1-.5-.3-.7-.4-.2-.2-.3-.4-.5-.7s-.2-.5-.2-.8,0-.6.2-.8c.1-.3.3-.5.5-.7.2-.2.4-.3.7-.4.3-.1.5-.2.9-.2s.5,0,.8.1.5.2.6.4h0c-.2-.1-.4-.2-.6-.3-.2,0-.5-.1-.7-.1s-.6,0-.8.2c-.2.1-.5.2-.6.4-.2.2-.3.4-.4.6s-.2.5-.2.8,0,.5.2.8c.1.2.2.5.4.6.2.2.4.3.6.4s.5.2.8.2.5,0,.7-.1c.2,0,.4-.2.6-.4h0c-.2.3-.4.4-.6.5s-.5.1-.8.1Z"/>
        <path class="st0" d="M68.4,87.8c-.4,0-.7,0-.9-.3s-.4-.4-.5-.7c-.1-.3-.2-.7-.2-1.1s0-.9.2-1.2c.1-.3.4-.5.6-.7.3-.2.6-.2.9-.2s.3,0,.5,0c.2,0,.3,0,.4.2h0c-.1,0-.2,0-.4,0-.1,0-.3,0-.5,0-.5,0-.9.2-1.2.5-.3.3-.5.8-.5,1.5s0,.2,0,.4c0,.2,0,.3,0,.5h0c0-.2,0-.4.2-.6.1-.2.3-.3.5-.4.2,0,.4-.1.7-.1s.5,0,.7.1c.2.1.4.2.5.4.1.2.2.4.2.6s0,.5-.2.6c-.1.2-.3.3-.5.4-.2.1-.4.2-.7.2ZM68.4,87.7c.2,0,.5,0,.6-.1.2,0,.3-.2.4-.4s.2-.4.2-.6c0-.3-.1-.6-.3-.8-.2-.2-.5-.3-.9-.3s-.5,0-.7.2c-.2,0-.3.2-.5.4-.1.2-.2.4-.2.6s0,.3.1.5c.1.2.2.3.4.4.2.1.4.2.7.2Z"/>
        <path class="st0" d="M70.4,86.3h0c0-.1,1.5-.1,1.5-.1h0c0,.1-1.5.1-1.5.1Z"/>
      </g>
    </g>
    <g class="st5">
      <g class="st5">
        <path class="st0" d="M36.9,99.3v-4.1h-1.6c0-.1,3.2-.1,3.2-.1h0c0,.1-1.6.1-1.6.1v4.1h-.1Z"/>
        <path class="st0" d="M41.1,99.3c-.3,0-.6,0-.9-.2-.3-.1-.5-.3-.7-.4-.2-.2-.3-.4-.5-.7s-.2-.5-.2-.8,0-.6.2-.8c.1-.3.3-.5.5-.7.2-.2.4-.3.7-.4.3-.1.5-.2.9-.2s.5,0,.8.1.5.2.6.4h0c-.2-.1-.4-.2-.6-.3s-.5-.1-.7-.1-.6,0-.8.2c-.2.1-.5.2-.6.4-.2.2-.3.4-.4.6s-.2.5-.2.8,0,.5.2.8c.1.2.2.5.4.6.2.2.4.3.6.4s.5.2.8.2.5,0,.7-.1.4-.2.6-.4h0c-.2.3-.4.4-.6.5s-.5.1-.8.1Z"/>
        <path class="st0" d="M44,99.3l1.9-4.1h0s-2.8,0-2.8,0h0s0,.8,0,.8h-.1v-1h2.9c0,0-1.9,4.2-1.9,4.2h-.1Z"/>
        <path class="st0" d="M46.8,97.2h0c0-.1,2.5-.1,2.5-.1h0c0,.1-2.5.1-2.5.1ZM47.9,98.3v-2.4h.1v2.4h-.1Z"/>
      </g>
    </g>
    <g class="st5">
      <g class="st5">
        <path class="st0" d="M25.3,99.1v-4.1h0s-1.1,0-1.1,0h0c0-.1,1.2-.1,1.2-.1v4.2h-.1Z"/>
        <path class="st0" d="M27.7,99.2c-.3,0-.6,0-.9-.2-.3-.1-.5-.3-.6-.4h0c.1,0,.3.2.5.3.2.1.5.2.8.2s.7,0,.9-.3c.2-.2.3-.4.3-.8s-.1-.6-.3-.8c-.2-.2-.6-.3-1-.3h-.2c0,0,1.4-1.9,1.4-1.9h0s-2.4,0-2.4,0h0c0-.1,2.5-.1,2.5-.1h0c0,0-1.4,1.9-1.4,1.9h0s0,0,0,0c.5,0,.9.1,1.1.3.2.2.4.5.4.8s0,.4-.2.6-.3.3-.5.4-.5.1-.8.1Z"/>
      </g>
    </g>
    <g class="st5">
      <g class="st5">
        <path class="st0" d="M79.1,99.1v-4.1h0s-1.1,0-1.1,0h0c0-.1,1.2-.1,1.2-.1v4.2h-.1Z"/>
        <path class="st0" d="M80.3,97.9h0c0,0,2.4-3,2.4-3h.1l-2.4,2.9h0s3.4,0,3.4,0h0c0,.1-3.5.1-3.5.1ZM82.7,99.1v-1.2h0v-1.2h.1v2.5h-.1Z"/>
      </g>
    </g>
    <g class="st5">
      <g class="st5">
        <path class="st0" d="M60.5,99.1v-4.1h-1.6c0-.1,3.2-.1,3.2-.1h0c0,.1-1.6.1-1.6.1v4.1h-.1Z"/>
        <path class="st0" d="M64.7,99.2c-.3,0-.6,0-.9-.2-.3-.1-.5-.3-.7-.4-.2-.2-.3-.4-.5-.7s-.2-.5-.2-.8,0-.6.2-.8c.1-.3.3-.5.5-.7.2-.2.4-.3.7-.4.3-.1.5-.2.9-.2s.5,0,.8.1.5.2.6.4h0c-.2-.1-.4-.2-.6-.3-.2,0-.5-.1-.7-.1s-.6,0-.8.2c-.2.1-.5.2-.6.4-.2.2-.3.4-.4.6s-.2.5-.2.8,0,.5.2.8c.1.2.2.5.4.6.2.2.4.3.6.4s.5.2.8.2.5,0,.7-.1c.2,0,.4-.2.6-.4h0c-.2.3-.4.4-.6.5s-.5.1-.8.1Z"/>
        <path class="st0" d="M67.6,99.1l1.9-4.1h0s-2.8,0-2.8,0h0s0,.8,0,.8h-.1v-1h2.9c0,0-1.9,4.2-1.9,4.2h-.1Z"/>
        <path class="st0" d="M70.3,97.6h0c0-.1,1.5-.1,1.5-.1h0c0,.1-1.5.1-1.5.1Z"/>
      </g>
    </g>
    <g class="st5">
      <g class="st5">
        <path class="st0" d="M36.2,110.6v-4.1h-1.6c0-.1,3.2-.1,3.2-.1h0c0,.1-1.6.1-1.6.1v4.1h-.1Z"/>
        <path class="st0" d="M40.4,110.6c-.3,0-.6,0-.9-.2-.3-.1-.5-.3-.7-.4-.2-.2-.3-.4-.5-.7s-.2-.5-.2-.8,0-.6.2-.8c.1-.3.3-.5.5-.7.2-.2.4-.3.7-.4.3-.1.5-.2.9-.2s.5,0,.8.1.5.2.6.4h0c-.2-.1-.4-.2-.6-.3s-.5-.1-.7-.1-.6,0-.8.2c-.2.1-.5.2-.6.4-.2.2-.3.4-.4.6s-.2.5-.2.8,0,.5.2.8c.1.2.2.5.4.6.2.2.4.3.6.4s.5.2.8.2.5,0,.7-.1.4-.2.6-.4h0c-.2.3-.4.4-.6.5s-.5.1-.8.1Z"/>
        <path class="st0" d="M44,110.6c-.3,0-.6,0-.8-.1s-.4-.2-.5-.4c-.1-.2-.2-.4-.2-.6s0-.4.2-.6c.1-.2.3-.3.5-.4s.5-.1.8-.1.6,0,.8.1.4.2.5.4.2.4.2.6,0,.4-.2.6-.3.3-.5.4c-.2,0-.5.1-.8.1ZM44,110.5c.5,0,.8,0,1.1-.3.2-.2.4-.4.4-.8s-.1-.6-.4-.7c-.2-.2-.6-.3-1.1-.3s-.8,0-1,.3c-.2.2-.4.4-.4.7s.1.6.4.8c.2.2.6.3,1,.3ZM44,108.4c-.3,0-.5,0-.8-.1s-.4-.2-.5-.4-.2-.3-.2-.5,0-.4.2-.6c.1-.2.3-.3.5-.4s.5-.1.7-.1.5,0,.7.1.4.2.5.4c.1.2.2.3.2.6s0,.4-.2.5c-.1.2-.3.3-.5.4s-.5.1-.8.1ZM44,108.3c.4,0,.7,0,.9-.2.2-.2.3-.4.3-.7s-.1-.5-.3-.7-.5-.3-.9-.3-.7,0-.9.3-.3.4-.3.7.1.5.3.7c.2.2.5.3.9.3Z"/>
        <path class="st0" d="M46.3,108.5h0c0-.1,2.5-.1,2.5-.1h0c0,.1-2.5.1-2.5.1ZM47.5,109.7v-2.4h.1v2.4h-.1Z"/>
      </g>
    </g>
    <g class="st5">
      <g class="st5">
        <path class="st0" d="M25.3,110.5v-4.1h0s-1.1,0-1.1,0h0c0-.1,1.2-.1,1.2-.1v4.2h-.1Z"/>
        <path class="st0" d="M27.8,110.5c-.3,0-.6,0-.8-.2-.3-.1-.5-.3-.6-.4h0c.1,0,.3.2.5.3.2.1.5.2.8.2.4,0,.8-.1,1-.3s.3-.5.3-.8,0-.4-.2-.6-.3-.3-.5-.4c-.2,0-.6-.1-1-.1h-.8l.2-1.9h2.1c0,.1-2.1.1-2.1.1h0s-.2,1.8-.2,1.8h0c0,0,.7,0,.7,0,.4,0,.8,0,1,.1.3,0,.4.2.5.4.1.2.2.4.2.6s0,.4-.2.6c-.1.2-.3.3-.5.4-.2.1-.5.2-.8.2Z"/>
      </g>
    </g>
    <g class="st5">
      <g class="st5">
        <path class="st0" d="M79.2,110.5v-4.1h0s-1.1,0-1.1,0h0c0-.1,1.2-.1,1.2-.1v4.2h-.1Z"/>
        <path class="st0" d="M82.2,110.5c-.4,0-.7,0-.9-.3s-.4-.4-.5-.7c-.1-.3-.2-.7-.2-1.1s0-.9.2-1.2c.1-.3.4-.5.6-.7.3-.2.6-.2.9-.2s.3,0,.5,0c.2,0,.3,0,.4.2h0c-.1,0-.2,0-.4,0-.1,0-.3,0-.5,0-.5,0-.9.2-1.2.5-.3.3-.5.8-.5,1.5s0,.2,0,.4c0,.2,0,.3,0,.5h0c0-.2,0-.4.2-.6.1-.2.3-.3.5-.4.2,0,.4-.1.7-.1s.5,0,.7.1c.2.1.4.2.5.4.1.2.2.4.2.6s0,.5-.2.6c-.1.2-.3.3-.5.4-.2.1-.4.2-.7.2ZM82.2,110.4c.2,0,.5,0,.6-.1.2,0,.3-.2.4-.4s.2-.4.2-.6c0-.3-.1-.6-.3-.8-.2-.2-.5-.3-.9-.3s-.5,0-.7.2c-.2,0-.3.2-.5.4-.1.2-.2.4-.2.6s0,.3.1.5c.1.2.2.3.4.4.2.1.4.2.7.2Z"/>
      </g>
    </g>
    <g class="st5">
      <g class="st5">
        <path class="st0" d="M59.8,110.5v-4.1h-1.6c0-.1,3.2-.1,3.2-.1h0c0,.1-1.6.1-1.6.1v4.1h-.1Z"/>
        <path class="st0" d="M64,110.5c-.3,0-.6,0-.9-.2-.3-.1-.5-.3-.7-.4-.2-.2-.3-.4-.5-.7s-.2-.5-.2-.8,0-.6.2-.8c.1-.3.3-.5.5-.7.2-.2.4-.3.7-.4.3-.1.5-.2.9-.2s.5,0,.8.1c.2,0,.5.2.6.4h0c-.2-.1-.4-.2-.6-.3s-.5-.1-.7-.1-.6,0-.8.2c-.2.1-.5.2-.6.4-.2.2-.3.4-.4.6s-.2.5-.2.8,0,.5.2.8c.1.2.2.5.4.6.2.2.4.3.6.4s.5.2.8.2.5,0,.7-.1.4-.2.6-.4h0c-.2.3-.4.4-.6.5-.2,0-.5.1-.8.1Z"/>
        <path class="st0" d="M67.6,110.5c-.3,0-.6,0-.8-.1-.2,0-.4-.2-.5-.4s-.2-.4-.2-.6,0-.4.2-.6.3-.3.5-.4c.2,0,.5-.1.8-.1s.6,0,.8.1c.2,0,.4.2.5.4s.2.4.2.6,0,.4-.2.6-.3.3-.5.4c-.2,0-.5.1-.8.1ZM67.6,110.4c.5,0,.8,0,1.1-.3.2-.2.4-.4.4-.8s-.1-.6-.4-.7c-.2-.2-.6-.3-1.1-.3s-.8,0-1,.3c-.2.2-.4.4-.4.7s.1.6.4.8c.2.2.6.3,1,.3ZM67.6,108.3c-.3,0-.5,0-.8-.1s-.4-.2-.5-.4c-.1-.2-.2-.3-.2-.5s0-.4.2-.6c.1-.2.3-.3.5-.4s.5-.1.7-.1.5,0,.7.1.4.2.5.4c.1.2.2.3.2.6s0,.4-.2.5-.3.3-.5.4-.5.1-.8.1ZM67.6,108.2c.4,0,.7,0,.9-.2s.3-.4.3-.7-.1-.5-.3-.7c-.2-.2-.5-.3-.9-.3s-.7,0-.9.3c-.2.2-.3.4-.3.7s.1.5.3.7.5.3.9.3Z"/>
        <path class="st0" d="M69.9,108.9h0c0-.1,1.5-.1,1.5-.1h0c0,.1-1.5.1-1.5.1Z"/>
      </g>
    </g>
    <g class="st5">
      <g class="st5">
        <path class="st0" d="M37.7,121.9c-.3,0-.6,0-.9-.2-.3-.1-.5-.3-.7-.4-.2-.2-.3-.4-.5-.7s-.2-.5-.2-.8,0-.6.2-.8c.1-.3.3-.5.5-.7.2-.2.4-.3.7-.4.3-.1.6-.2.9-.2s.6,0,.8.1.5.2.6.4h0c-.2-.1-.4-.2-.6-.3s-.5-.1-.7-.1-.6,0-.8.2c-.2.1-.5.2-.7.4-.2.2-.3.4-.4.6s-.2.5-.2.8,0,.5.2.8c.1.2.2.5.4.6.2.2.4.3.7.4s.5.2.8.2.5,0,.7-.1.4-.2.6-.4h0c-.2.3-.4.4-.6.5s-.5.1-.8.1ZM39,121.4v-1.5h.1v1.5h-.1Z"/>
        <path class="st0" d="M40.6,121.9v-4.2h.1l3.1,4.1h0v-4.1h.1v4.2h-.1l-3.1-4.1h0v4.1h-.1Z"/>
        <path class="st0" d="M45.5,121.9v-4.2h1.6c.4,0,.8,0,1.2.3.3.2.6.4.8.7.2.3.3.7.3,1.1s0,.8-.3,1.1c-.2.3-.4.6-.8.7-.3.2-.7.3-1.2.3h-1.6ZM45.6,121.8h1.5c.4,0,.8,0,1.1-.3.3-.2.6-.4.7-.7.2-.3.3-.6.3-1s0-.7-.3-1c-.2-.3-.4-.5-.7-.7-.3-.2-.7-.3-1.1-.3h-1.5v4Z"/>
      </g>
    </g>
    <g class="st5">
      <g class="st5">
        <path class="st0" d="M25.2,121.8v-4.1h0s-1.1,0-1.1,0h0c0-.1,1.2-.1,1.2-.1v4.2h-.1Z"/>
        <path class="st0" d="M27.2,121.8l1.9-4.1h0s-2.8,0-2.8,0h0s0,.8,0,.8h-.1v-1h2.9c0,0-1.9,4.2-1.9,4.2h-.1Z"/>
      </g>
    </g>
    <g class="st5">
      <g class="st5">
        <path class="st0" d="M79.2,121.8v-4.1h0s-1.1,0-1.1,0h0c0-.1,1.2-.1,1.2-.1v4.2h-.1Z"/>
        <path class="st0" d="M81.9,121.8c-.3,0-.6,0-.8-.1-.2,0-.4-.2-.5-.4s-.2-.4-.2-.6,0-.4.2-.6.3-.3.5-.4c.2,0,.5-.1.8-.1s.6,0,.8.1.4.2.5.4.2.4.2.6,0,.4-.2.6-.3.3-.5.4-.5.1-.8.1ZM81.9,121.7c.5,0,.8,0,1.1-.3s.4-.4.4-.8-.1-.6-.4-.7-.6-.3-1.1-.3-.8,0-1,.3-.4.4-.4.7.1.6.4.8.6.3,1,.3ZM81.9,119.7c-.3,0-.5,0-.8-.1s-.4-.2-.5-.3-.2-.3-.2-.5,0-.4.2-.6c.1-.2.3-.3.5-.4.2,0,.5-.1.7-.1s.5,0,.7.1.4.2.5.4c.1.2.2.3.2.6s0,.4-.2.5-.3.3-.5.3c-.2,0-.5.1-.8.1ZM81.9,119.6c.4,0,.7,0,.9-.2s.3-.4.3-.7-.1-.5-.3-.7c-.2-.2-.5-.3-.9-.3s-.7,0-.9.3-.3.4-.3.7.1.5.3.7.5.3.9.3Z"/>
      </g>
    </g>
    <g class="st5">
      <g class="st5">
        <path class="st0" d="M61,121.8c-.3,0-.6,0-.9-.2s-.5-.3-.7-.4c-.2-.2-.3-.4-.5-.7-.1-.3-.2-.5-.2-.8s0-.6.2-.8c.1-.3.3-.5.5-.7.2-.2.4-.3.7-.4s.6-.2.9-.2.6,0,.8.1.5.2.6.4h0c-.2,0-.4-.2-.6-.3-.2,0-.5-.1-.7-.1s-.6,0-.8.2c-.2.1-.5.2-.7.4-.2.2-.3.4-.4.6-.1.2-.2.5-.2.8s0,.5.2.8c.1.2.2.5.4.6.2.2.4.3.7.4s.5.2.8.2.5,0,.7-.1c.2,0,.4-.2.6-.4h0c-.2.3-.4.4-.6.5s-.5.1-.8.1ZM62.3,121.3v-1.5h.1v1.5h-.1Z"/>
        <path class="st0" d="M63.9,121.8v-4.2h.1l3.1,4.1h0v-4.1h.1v4.2h-.1l-3.1-4.1h0v4.1h-.1Z"/>
        <path class="st0" d="M68.8,121.8v-4.2h1.6c.4,0,.8,0,1.2.3.3.2.6.4.8.7s.3.7.3,1.1,0,.8-.3,1.1-.4.6-.8.7c-.3.2-.7.3-1.2.3h-1.6ZM68.9,121.7h1.5c.4,0,.8,0,1.1-.3s.6-.4.7-.7c.2-.3.3-.6.3-1s0-.7-.3-1c-.2-.3-.4-.5-.7-.7s-.7-.3-1.1-.3h-1.5v4Z"/>
      </g>
    </g>
  </g>
</svg>