<?xml version="1.0" encoding="UTF-8"?>
<svg xmlns="http://www.w3.org/2000/svg" viewBox="0 0 127.56 141.73">
  <defs>
    <style>
      .cls-1 {
        letter-spacing: 0em;
      }

      .cls-1, .cls-2, .cls-3, .cls-4, .cls-5 {
        fill: #767576;
      }

      .cls-1, .cls-2, .cls-3, .cls-5 {
        font-family: MontserratRoman-Regular, Montserrat;
        font-size: 6px;
        font-variation-settings: 'wght' 400;
      }

      .cls-2 {
        letter-spacing: 0em;
      }

      .cls-6 {
        fill: none;
      }

      .cls-6, .cls-7, .cls-8 {
        stroke: #767576;
        stroke-miterlimit: 10;
        stroke-width: .5px;
      }

      .cls-3 {
        letter-spacing: -.03em;
      }

      .cls-7 {
        fill: #f7941d;
      }

      .cls-8 {
        fill: #bcbec0;
      }
    </style>
  </defs>
  <g id="scheme_w" data-name="scheme w">
    <line class="cls-6" x1="45.81" y1="18.14" x2="40.42" y2="18.14"/>
    <text class="cls-2" transform="translate(41.27 17.57)"><tspan x="0" y="0">+</tspan></text>
    <text class="cls-1" transform="translate(16.89 17.29)"><tspan x="0" y="0">-</tspan></text>
    <polyline class="cls-6" points="107.88 18.09 116.38 18.09 116.38 119.86 13.77 119.91 13.77 18.14 20.63 18.14"/>
    <line class="cls-6" x1="116.38" y1="29.43" x2="107.59" y2="29.43"/>
    <line class="cls-6" x1="116.38" y1="40.49" x2="107.88" y2="40.49"/>
    <line class="cls-6" x1="116.38" y1="51.83" x2="107.88" y2="51.83"/>
    <line class="cls-6" x1="116.38" y1="62.88" x2="107.88" y2="62.88"/>
    <line class="cls-6" x1="116.38" y1="74.22" x2="107.88" y2="74.22"/>
    <line class="cls-6" x1="116.38" y1="85.56" x2="107.59" y2="85.56"/>
    <line class="cls-6" x1="116.38" y1="96.9" x2="107.88" y2="96.9"/>
    <rect class="cls-6" x="20.56" y="14.74" width="19.84" height="7.09"/>
    <text class="cls-3" transform="translate(21.17 20.05)"><tspan x="0" y="0">Уст-во</tspan></text>
    <line class="cls-6" x1="14.06" y1="108.24" x2="47.22" y2="108.24"/>
    <line class="cls-6" x1="45.81" y1="29.48" x2="40.42" y2="29.48"/>
    <text class="cls-2" transform="translate(41.27 28.91)"><tspan x="0" y="0">+</tspan></text>
    <text class="cls-1" transform="translate(16.89 28.63)"><tspan x="0" y="0">-</tspan></text>
    <rect class="cls-6" x="20.56" y="26.08" width="19.84" height="7.09"/>
    <text class="cls-3" transform="translate(21.17 31.39)"><tspan x="0" y="0">Уст-во</tspan></text>
    <line class="cls-6" x1="45.81" y1="40.44" x2="40.42" y2="40.44"/>
    <text class="cls-2" transform="translate(41.27 39.87)"><tspan x="0" y="0">+</tspan></text>
    <text class="cls-1" transform="translate(16.89 39.59)"><tspan x="0" y="0">-</tspan></text>
    <rect class="cls-6" x="20.56" y="37.04" width="19.84" height="7.09"/>
    <text class="cls-3" transform="translate(21.17 42.35)"><tspan x="0" y="0">Уст-во</tspan></text>
    <line class="cls-6" x1="45.81" y1="51.78" x2="40.42" y2="51.78"/>
    <text class="cls-2" transform="translate(41.27 51.21)"><tspan x="0" y="0">+</tspan></text>
    <text class="cls-1" transform="translate(16.89 50.93)"><tspan x="0" y="0">-</tspan></text>
    <rect class="cls-6" x="20.56" y="48.38" width="19.84" height="7.09"/>
    <text class="cls-3" transform="translate(21.17 53.69)"><tspan x="0" y="0">Уст-во</tspan></text>
    <line class="cls-6" x1="45.81" y1="62.83" x2="40.42" y2="62.83"/>
    <text class="cls-2" transform="translate(41.27 62.27)"><tspan x="0" y="0">+</tspan></text>
    <text class="cls-1" transform="translate(16.89 61.98)"><tspan x="0" y="0">-</tspan></text>
    <rect class="cls-6" x="20.56" y="59.43" width="19.84" height="7.09"/>
    <text class="cls-3" transform="translate(21.17 64.74)"><tspan x="0" y="0">Уст-во</tspan></text>
    <line class="cls-6" x1="45.81" y1="74.17" x2="40.42" y2="74.17"/>
    <text class="cls-2" transform="translate(41.27 73.61)"><tspan x="0" y="0">+</tspan></text>
    <text class="cls-1" transform="translate(16.89 73.32)"><tspan x="0" y="0">-</tspan></text>
    <rect class="cls-6" x="20.56" y="70.77" width="19.84" height="7.09"/>
    <text class="cls-3" transform="translate(21.17 76.08)"><tspan x="0" y="0">Уст-во</tspan></text>
    <line class="cls-6" x1="45.81" y1="85.61" x2="40.42" y2="85.61"/>
    <text class="cls-2" transform="translate(41.27 85.04)"><tspan x="0" y="0">+</tspan></text>
    <text class="cls-1" transform="translate(16.89 84.76)"><tspan x="0" y="0">-</tspan></text>
    <rect class="cls-6" x="20.56" y="82.2" width="19.84" height="7.09"/>
    <text class="cls-3" transform="translate(21.17 87.51)"><tspan x="0" y="0">Уст-во</tspan></text>
    <line class="cls-6" x1="45.81" y1="96.94" x2="40.42" y2="96.94"/>
    <text class="cls-2" transform="translate(41.27 96.38)"><tspan x="0" y="0">+</tspan></text>
    <text class="cls-1" transform="translate(16.89 96.09)"><tspan x="0" y="0">-</tspan></text>
    <rect class="cls-6" x="20.56" y="93.54" width="19.84" height="7.09"/>
    <text class="cls-3" transform="translate(21.17 98.85)"><tspan x="0" y="0">Уст-во</tspan></text>
    <line class="cls-6" x1="13.77" y1="96.9" x2="20.58" y2="96.9"/>
    <line class="cls-6" x1="13.77" y1="85.56" x2="20.58" y2="85.56"/>
    <line class="cls-6" x1="13.77" y1="74.22" x2="20.58" y2="74.22"/>
    <line class="cls-6" x1="13.77" y1="62.88" x2="20.58" y2="62.88"/>
    <line class="cls-6" x1="13.77" y1="51.83" x2="20.58" y2="51.83"/>
    <line class="cls-6" x1="13.77" y1="40.49" x2="20.58" y2="40.49"/>
    <line class="cls-6" x1="13.77" y1="29.48" x2="20.58" y2="29.48"/>
  </g>
  <g id="_Точки" data-name="Точки">
    <circle class="cls-4" cx="116.38" cy="96.9" r=".57"/>
    <circle class="cls-4" cx="116.38" cy="85.56" r=".57"/>
    <circle class="cls-4" cx="116.38" cy="74.22" r=".57"/>
    <circle class="cls-4" cx="116.38" cy="62.88" r=".57"/>
    <circle class="cls-4" cx="116.38" cy="51.83" r=".57"/>
    <circle class="cls-4" cx="116.38" cy="40.49" r=".57"/>
    <circle class="cls-4" cx="116.38" cy="29.43" r=".57"/>
    <circle class="cls-4" cx="13.78" cy="108.28" r=".57"/>
    <circle class="cls-4" cx="13.77" cy="96.9" r=".57"/>
    <circle class="cls-4" cx="13.77" cy="85.56" r=".57"/>
    <circle class="cls-4" cx="13.77" cy="74.22" r=".57"/>
    <circle class="cls-4" cx="13.77" cy="62.88" r=".57"/>
    <circle class="cls-4" cx="13.77" cy="51.83" r=".57"/>
    <circle class="cls-4" cx="13.77" cy="40.49" r=".57"/>
    <circle class="cls-4" cx="13.77" cy="29.48" r=".57"/>
  </g>
  <g id="scheme">
    <rect class="cls-8" x="54.38" y="12.42" width="22.68" height="11.34"/>
    <rect class="cls-8" x="77.06" y="12.42" width="22.68" height="11.34"/>
    <rect class="cls-7" x="45.88" y="12.42" width="8.5" height="11.34"/>
    <rect class="cls-7" x="99.74" y="12.42" width="8.5" height="11.34"/>
    <rect class="cls-8" x="54.38" y="23.76" width="22.68" height="11.34"/>
    <rect class="cls-8" x="77.06" y="23.76" width="22.68" height="11.34"/>
    <rect class="cls-7" x="45.88" y="23.76" width="8.5" height="11.34"/>
    <rect class="cls-7" x="99.74" y="23.76" width="8.5" height="11.34"/>
    <rect class="cls-8" x="54.38" y="34.92" width="22.68" height="11.34"/>
    <rect class="cls-8" x="77.06" y="34.92" width="22.68" height="11.34"/>
    <rect class="cls-7" x="45.88" y="34.92" width="8.5" height="11.34"/>
    <rect class="cls-7" x="99.74" y="34.92" width="8.5" height="11.34"/>
    <rect class="cls-8" x="54.38" y="46.26" width="22.68" height="11.34"/>
    <rect class="cls-8" x="77.06" y="46.26" width="22.68" height="11.34"/>
    <rect class="cls-7" x="45.88" y="46.26" width="8.5" height="11.34"/>
    <rect class="cls-7" x="99.74" y="46.26" width="8.5" height="11.34"/>
    <rect class="cls-8" x="54.38" y="57.42" width="22.68" height="11.34"/>
    <rect class="cls-8" x="77.06" y="57.42" width="22.68" height="11.34"/>
    <rect class="cls-7" x="45.88" y="57.42" width="8.5" height="11.34"/>
    <rect class="cls-7" x="99.74" y="57.42" width="8.5" height="11.34"/>
    <rect class="cls-8" x="54.38" y="68.76" width="22.68" height="11.34"/>
    <rect class="cls-8" x="77.06" y="68.76" width="22.68" height="11.34"/>
    <rect class="cls-7" x="45.88" y="68.76" width="8.5" height="11.34"/>
    <rect class="cls-7" x="99.74" y="68.76" width="8.5" height="11.34"/>
    <rect class="cls-8" x="54.38" y="80.1" width="22.68" height="11.34"/>
    <rect class="cls-8" x="77.06" y="80.1" width="22.68" height="11.34"/>
    <rect class="cls-7" x="45.88" y="80.1" width="8.5" height="11.34"/>
    <rect class="cls-7" x="99.74" y="80.1" width="8.5" height="11.34"/>
    <rect class="cls-8" x="54.38" y="91.44" width="22.68" height="11.34"/>
    <rect class="cls-8" x="77.06" y="91.44" width="22.68" height="11.34"/>
    <rect class="cls-7" x="45.88" y="91.44" width="8.5" height="11.34"/>
    <rect class="cls-7" x="99.74" y="91.44" width="8.5" height="11.34"/>
    <rect class="cls-8" x="54.38" y="102.78" width="22.68" height="11.34"/>
    <rect class="cls-8" x="77.06" y="102.78" width="22.68" height="11.34"/>
    <rect class="cls-7" x="45.88" y="102.78" width="8.5" height="11.34"/>
    <rect class="cls-7" x="99.74" y="102.78" width="8.5" height="11.34"/>
  </g>
  <g id="scheme_letters" data-name="scheme letters">
    <text class="cls-5" transform="translate(59.99 20.33)"><tspan x="0" y="0">AO1</tspan></text>
    <text class="cls-5" transform="translate(48.87 20.22)"><tspan x="0" y="0">1</tspan></text>
    <text class="cls-5" transform="translate(102.36 20.22)"><tspan x="0" y="0">2</tspan></text>
    <text class="cls-3" transform="translate(81.67 20.22)"><tspan x="0" y="0">GND</tspan></text>
    <text class="cls-5" transform="translate(59.37 31.67)"><tspan x="0" y="0">AO2</tspan></text>
    <text class="cls-5" transform="translate(48.37 31.56) scale(.83 1)"><tspan x="0" y="0">3</tspan></text>
    <text class="cls-5" transform="translate(102.08 31.56)"><tspan x="0" y="0">4</tspan></text>
    <text class="cls-3" transform="translate(81.67 31.56)"><tspan x="0" y="0">GND</tspan></text>
    <text class="cls-5" transform="translate(59.38 42.83)"><tspan x="0" y="0">AO3</tspan></text>
    <text class="cls-5" transform="translate(48.26 42.72)"><tspan x="0" y="0">5</tspan></text>
    <text class="cls-5" transform="translate(102.24 42.72)"><tspan x="0" y="0">6</tspan></text>
    <text class="cls-3" transform="translate(81.67 42.72)"><tspan x="0" y="0">GND</tspan></text>
    <text class="cls-5" transform="translate(59.09 54.17)"><tspan x="0" y="0">AO4</tspan></text>
    <text class="cls-5" transform="translate(48.19 54.06)"><tspan x="0" y="0">7</tspan></text>
    <text class="cls-5" transform="translate(102.15 54.06)"><tspan x="0" y="0">8</tspan></text>
    <text class="cls-3" transform="translate(81.18 54.06)"><tspan x="0" y="0">GND</tspan></text>
    <text class="cls-5" transform="translate(59.38 65.33)"><tspan x="0" y="0">AO5</tspan></text>
    <text class="cls-5" transform="translate(48.13 65.22)"><tspan x="0" y="0">9</tspan></text>
    <text class="cls-5" transform="translate(100.99 65.22)"><tspan x="0" y="0">10</tspan></text>
    <text class="cls-3" transform="translate(81.35 65.22)"><tspan x="0" y="0">GND</tspan></text>
    <text class="cls-5" transform="translate(59.25 76.67)"><tspan x="0" y="0">AO6</tspan></text>
    <text class="cls-5" transform="translate(47.79 76.56)"><tspan x="0" y="0">11</tspan></text>
    <text class="cls-5" transform="translate(101.28 76.56)"><tspan x="0" y="0">12</tspan></text>
    <text class="cls-3" transform="translate(81.67 76.56)"><tspan x="0" y="0">GND</tspan></text>
    <text class="cls-5" transform="translate(59.31 88)"><tspan x="0" y="0">AO7</tspan></text>
    <text class="cls-5" transform="translate(47.18 87.9)"><tspan x="0" y="0">13</tspan></text>
    <text class="cls-5" transform="translate(101 87.9)"><tspan x="0" y="0">14</tspan></text>
    <text class="cls-3" transform="translate(81.67 87.9)"><tspan x="0" y="0">GND</tspan></text>
    <text class="cls-5" transform="translate(59.16 99.34)"><tspan x="0" y="0">AO8</tspan></text>
    <text class="cls-5" transform="translate(47.17 99.24)"><tspan x="0" y="0">15</tspan></text>
    <text class="cls-5" transform="translate(101.15 99.24)"><tspan x="0" y="0">16</tspan></text>
    <text class="cls-3" transform="translate(81.67 99.24)"><tspan x="0" y="0">GND</tspan></text>
    <text class="cls-5" transform="translate(58.22 110.68)"><tspan x="0" y="0">GND</tspan></text>
    <text class="cls-5" transform="translate(47.1 110.57)"><tspan x="0" y="0">17</tspan></text>
    <text class="cls-5" transform="translate(101.07 110.57)"><tspan x="0" y="0">18</tspan></text>
    <text class="cls-5" transform="translate(81.52 110.57)"><tspan x="0" y="0">GND</tspan></text>
  </g>
</svg>