<?xml version="1.0" encoding="UTF-8"?>
<svg xmlns="http://www.w3.org/2000/svg" viewBox="0 0 127.56 141.73">
  <defs>
    <style>
      .cls-1 {
        letter-spacing: 0em;
      }

      .cls-1, .cls-2, .cls-3, .cls-4, .cls-5, .cls-6 {
        fill: #767576;
      }

      .cls-1, .cls-2, .cls-3, .cls-5, .cls-6 {
        font-family: MontserratRoman-Regular, Montserrat;
        font-variation-settings: 'wght' 400;
      }

      .cls-1, .cls-2, .cls-3, .cls-6 {
        font-size: 6px;
      }

      .cls-2 {
        letter-spacing: 0em;
      }

      .cls-7, .cls-8, .cls-9, .cls-10, .cls-11, .cls-12, .cls-13, .cls-14, .cls-15 {
        stroke: #767576;
        stroke-miterlimit: 10;
        stroke-width: .5px;
      }

      .cls-7, .cls-8, .cls-9, .cls-10, .cls-13, .cls-14, .cls-15 {
        fill: none;
      }

      .cls-3 {
        letter-spacing: -.03em;
      }

      .cls-8 {
        stroke-dasharray: 2.31 2.31;
      }

      .cls-9 {
        stroke-dasharray: 2.95 2.95;
      }

      .cls-5 {
        font-size: 4px;
        letter-spacing: -.02em;
      }

      .cls-10 {
        stroke-dasharray: 2.4 2.4;
      }

      .cls-11 {
        fill: #f7941d;
      }

      .cls-12 {
        fill: #bcbec0;
      }

      .cls-13 {
        stroke-dasharray: 2.92 2.92;
      }

      .cls-14 {
        stroke-dasharray: 3;
      }

      .cls-15 {
        stroke-dasharray: 2.92 2.92;
      }
    </style>
  </defs>
  <g id="scheme_w" data-name="scheme w">
    <polyline class="cls-7" points="20.98 17.57 12.76 17.57 12.81 128.87 114.5 128.7 114.52 17.57 106.58 17.57"/>
    <line class="cls-7" x1="12.76" y1="39.97" x2="20.69" y2="39.92"/>
    <line class="cls-7" x1="12.76" y1="51.31" x2="20.69" y2="51.31"/>
    <line class="cls-7" x1="12.76" y1="62.36" x2="20.69" y2="62.36"/>
    <line class="cls-7" x1="12.76" y1="73.7" x2="20.69" y2="73.7"/>
    <line class="cls-7" x1="12.76" y1="85.04" x2="20.69" y2="85.04"/>
    <line class="cls-7" x1="12.75" y1="96.33" x2="20.69" y2="96.33"/>
    <polyline class="cls-7" points="32.6 96.38 25.23 96.38 25.23 96.38 21.01 92.45"/>
    <line class="cls-7" x1="114.52" y1="28.91" x2="106.87" y2="28.91"/>
    <line class="cls-7" x1="114.52" y1="39.97" x2="106.87" y2="39.97"/>
    <line class="cls-7" x1="114.52" y1="51.31" x2="106.87" y2="51.31"/>
    <line class="cls-7" x1="114.52" y1="62.36" x2="106.87" y2="62.36"/>
    <line class="cls-7" x1="114.8" y1="73.7" x2="106.87" y2="73.7"/>
    <line class="cls-7" x1="114.52" y1="85.04" x2="106.87" y2="85.04"/>
    <line class="cls-7" x1="114.52" y1="96.38" x2="106.87" y2="96.38"/>
    <polyline class="cls-7" points="94.68 96.38 102.61 96.38 102.61 96.38 106.61 92.83"/>
    <line class="cls-7" x1="28.34" y1="107.89" x2="24.09" y2="107.89"/>
    <line class="cls-7" x1="23.87" y1="103.73" x2="23.87" y2="112.23"/>
    <line class="cls-7" x1="21.74" y1="110.1" x2="21.74" y2="105.85"/>
    <polyline class="cls-7" points="21.61 107.89 17.36 107.89 12.82 107.89"/>
    <line class="cls-7" x1="28.13" y1="107.89" x2="32.67" y2="107.89"/>
    <line class="cls-7" x1="21.91" y1="117.62" x2="21.91" y2="126.12"/>
    <line class="cls-7" x1="24.03" y1="123.99" x2="24.03" y2="119.74"/>
    <line class="cls-7" x1="28.42" y1="121.78" x2="24.16" y2="121.78"/>
    <g>
      <line class="cls-7" x1="109.57" y1="97.12" x2="109.57" y2="98.62"/>
      <polyline class="cls-7" points="109.57 99.59 109.57 101.09 111.07 101.09"/>
      <line class="cls-8" x1="113.38" y1="101.09" x2="116.84" y2="101.09"/>
      <line class="cls-7" x1="118" y1="101.09" x2="119.5" y2="101.09"/>
    </g>
    <g>
      <line class="cls-7" x1="109.57" y1="85.5" x2="109.57" y2="87"/>
      <polyline class="cls-7" points="109.57 87.97 109.57 89.47 111.07 89.47"/>
      <line class="cls-8" x1="113.38" y1="89.47" x2="116.84" y2="89.47"/>
      <line class="cls-7" x1="118" y1="89.47" x2="119.5" y2="89.47"/>
    </g>
    <g>
      <line class="cls-7" x1="109.7" y1="63.11" x2="109.7" y2="64.61"/>
      <polyline class="cls-7" points="109.7 65.57 109.7 67.07 111.2 67.07"/>
      <line class="cls-8" x1="113.51" y1="67.07" x2="116.97" y2="67.07"/>
      <line class="cls-7" x1="118.12" y1="67.07" x2="119.62" y2="67.07"/>
    </g>
    <g>
      <line class="cls-7" x1="109.57" y1="51.77" x2="109.57" y2="53.27"/>
      <polyline class="cls-7" points="109.57 54.24 109.57 55.74 111.07 55.74"/>
      <line class="cls-8" x1="113.38" y1="55.74" x2="116.84" y2="55.74"/>
      <line class="cls-7" x1="118" y1="55.74" x2="119.5" y2="55.74"/>
    </g>
    <g>
      <line class="cls-7" x1="109.42" y1="40.43" x2="109.42" y2="41.93"/>
      <polyline class="cls-7" points="109.42 42.9 109.42 44.4 110.92 44.4"/>
      <line class="cls-8" x1="113.22" y1="44.4" x2="116.69" y2="44.4"/>
      <line class="cls-7" x1="117.84" y1="44.4" x2="119.34" y2="44.4"/>
    </g>
    <g>
      <line class="cls-7" x1="109.57" y1="29.09" x2="109.57" y2="30.59"/>
      <polyline class="cls-7" points="109.57 31.56 109.57 33.06 111.07 33.06"/>
      <line class="cls-8" x1="113.38" y1="33.06" x2="116.84" y2="33.06"/>
      <line class="cls-7" x1="118" y1="33.06" x2="119.5" y2="33.06"/>
    </g>
    <g>
      <line class="cls-7" x1="109.57" y1="74.16" x2="109.57" y2="75.66"/>
      <polyline class="cls-7" points="109.57 76.63 109.57 78.13 111.07 78.13"/>
      <line class="cls-8" x1="113.38" y1="78.13" x2="116.84" y2="78.13"/>
      <line class="cls-7" x1="118" y1="78.13" x2="119.5" y2="78.13"/>
    </g>
    <g>
      <line class="cls-7" x1="17.86" y1="96.67" x2="17.86" y2="98.17"/>
      <polyline class="cls-7" points="17.86 99.41 17.86 100.91 16.36 100.91"/>
      <line class="cls-10" x1="13.96" y1="100.91" x2="10.35" y2="100.91"/>
      <line class="cls-7" x1="9.15" y1="100.91" x2="7.65" y2="100.91"/>
    </g>
    <g>
      <line class="cls-7" x1="17.86" y1="85.78" x2="17.86" y2="87.28"/>
      <polyline class="cls-7" points="17.86 88.07 17.86 89.57 16.36 89.57"/>
      <line class="cls-10" x1="13.96" y1="89.57" x2="10.35" y2="89.57"/>
      <line class="cls-7" x1="9.15" y1="89.57" x2="7.65" y2="89.57"/>
    </g>
    <g>
      <line class="cls-7" x1="17.86" y1="63.67" x2="17.86" y2="65.17"/>
      <polyline class="cls-7" points="17.86 66.14 17.86 67.64 16.36 67.64"/>
      <line class="cls-8" x1="14.05" y1="67.64" x2="10.59" y2="67.64"/>
      <line class="cls-7" x1="9.44" y1="67.64" x2="7.94" y2="67.64"/>
    </g>
    <g>
      <line class="cls-7" x1="17.86" y1="52.05" x2="17.86" y2="53.55"/>
      <polyline class="cls-7" points="17.86 54.52 17.86 56.02 16.36 56.02"/>
      <line class="cls-8" x1="14.05" y1="56.02" x2="10.59" y2="56.02"/>
      <line class="cls-7" x1="9.44" y1="56.02" x2="7.94" y2="56.02"/>
    </g>
    <g>
      <line class="cls-7" x1="17.86" y1="40.71" x2="17.86" y2="42.21"/>
      <polyline class="cls-7" points="17.86 43.18 17.86 44.68 16.36 44.68"/>
      <line class="cls-8" x1="14.05" y1="44.68" x2="10.59" y2="44.68"/>
      <line class="cls-7" x1="9.44" y1="44.68" x2="7.94" y2="44.68"/>
    </g>
    <g>
      <line class="cls-7" x1="17.86" y1="29.37" x2="17.86" y2="30.87"/>
      <polyline class="cls-7" points="17.86 31.84 17.86 33.34 16.36 33.34"/>
      <line class="cls-8" x1="14.05" y1="33.34" x2="10.59" y2="33.34"/>
      <line class="cls-7" x1="9.44" y1="33.34" x2="7.94" y2="33.34"/>
    </g>
    <g>
      <line class="cls-7" x1="17.86" y1="74.44" x2="17.86" y2="75.94"/>
      <polyline class="cls-7" points="17.86 76.91 17.86 78.41 16.36 78.41"/>
      <line class="cls-8" x1="14.05" y1="78.41" x2="10.59" y2="78.41"/>
      <line class="cls-7" x1="9.44" y1="78.41" x2="7.94" y2="78.41"/>
    </g>
    <g>
      <line class="cls-7" x1="17.86" y1="18.32" x2="17.86" y2="19.82"/>
      <polyline class="cls-7" points="17.86 20.61 17.86 22.11 16.36 22.11"/>
      <line class="cls-10" x1="13.96" y1="22.11" x2="10.35" y2="22.11"/>
      <polyline class="cls-7" points="9.15 22.11 7.65 22.11 7.65 23.61"/>
      <line class="cls-13" x1="7.65" y1="26.53" x2="7.65" y2="130.16"/>
      <polyline class="cls-7" points="7.65 131.62 7.65 133.12 9.15 133.12"/>
      <line class="cls-9" x1="12.1" y1="133.12" x2="116.65" y2="133.12"/>
      <polyline class="cls-7" points="118.12 133.12 119.62 133.12 119.62 131.62"/>
      <line class="cls-15" x1="119.62" y1="128.7" x2="119.5" y2="24.96"/>
      <polyline class="cls-7" points="119.5 23.5 119.5 22 118 22"/>
      <line class="cls-8" x1="115.69" y1="22" x2="112.23" y2="22"/>
      <polyline class="cls-7" points="111.07 22 109.57 22 109.57 20.5"/>
      <line class="cls-7" x1="109.57" y1="19.54" x2="109.57" y2="18.04"/>
    </g>
    <line class="cls-14" x1="119.62" y1="107.61" x2="94.39" y2="107.61"/>
    <polyline class="cls-7" points="32.65 85.02 25.28 85.02 25.28 85.02 21.06 81.09"/>
    <polyline class="cls-7" points="94.73 85.02 102.67 85.02 102.67 85.02 106.66 81.47"/>
    <polyline class="cls-7" points="32.76 73.63 25.39 73.63 25.39 73.63 21.17 69.71"/>
    <polyline class="cls-7" points="94.84 73.63 102.77 73.63 102.77 73.63 106.77 70.09"/>
    <polyline class="cls-7" points="32.73 62.3 25.36 62.3 25.36 62.3 21.14 58.37"/>
    <polyline class="cls-7" points="94.81 62.3 102.74 62.3 102.74 62.3 106.74 58.75"/>
    <polyline class="cls-7" points="32.74 51.24 25.37 51.24 25.37 51.24 21.15 47.31"/>
    <polyline class="cls-7" points="94.82 51.24 102.76 51.24 102.76 51.24 106.76 47.7"/>
    <polyline class="cls-7" points="32.85 39.97 25.48 39.97 25.48 39.97 21.26 36.04"/>
    <polyline class="cls-7" points="94.93 39.97 102.87 39.97 102.87 39.97 106.86 36.42"/>
    <polyline class="cls-7" points="32.89 28.98 25.52 28.98 25.52 28.98 21.3 25.05"/>
    <polyline class="cls-7" points="94.97 28.98 102.91 28.98 102.91 28.98 106.9 25.44"/>
    <polyline class="cls-7" points="32.71 17.62 25.34 17.62 25.34 17.62 21.12 13.69"/>
    <polyline class="cls-7" points="94.79 17.62 102.72 17.62 102.72 17.62 106.72 14.08"/>
  </g>
  <g id="_Точки" data-name="Точки">
    <circle class="cls-4" cx="114.52" cy="28.91" r=".57"/>
    <circle class="cls-4" cx="114.52" cy="39.97" r=".57"/>
    <circle class="cls-4" cx="114.52" cy="51.31" r=".57"/>
    <circle class="cls-4" cx="114.52" cy="62.36" r=".57"/>
    <circle class="cls-4" cx="114.52" cy="73.7" r=".57"/>
    <circle class="cls-4" cx="114.52" cy="85.04" r=".57"/>
    <circle class="cls-4" cx="114.52" cy="96.38" r=".57"/>
    <circle class="cls-4" cx="119.62" cy="107.61" r=".57"/>
    <circle class="cls-4" cx="109.7" cy="17.57" r=".57"/>
    <circle class="cls-4" cx="109.55" cy="28.9" r=".57"/>
    <circle class="cls-4" cx="119.62" cy="33.17" r=".57"/>
    <circle class="cls-4" cx="109.42" cy="39.97" r=".57"/>
    <circle class="cls-4" cx="119.49" cy="44.49" r=".57"/>
    <circle class="cls-4" cx="109.54" cy="51.26" r=".57"/>
    <circle class="cls-4" cx="119.5" cy="55.74" r=".57"/>
    <circle class="cls-4" cx="119.62" cy="67.18" r=".57"/>
    <circle class="cls-4" cx="109.57" cy="73.65" r=".57"/>
    <circle class="cls-4" cx="119.62" cy="78.24" r=".57"/>
    <circle class="cls-4" cx="109.6" cy="84.99" r=".57"/>
    <circle class="cls-4" cx="119.62" cy="89.29" r=".57"/>
    <circle class="cls-4" cx="109.56" cy="96.42" r=".57"/>
    <circle class="cls-4" cx="119.62" cy="101.2" r=".57"/>
    <circle class="cls-4" cx="109.7" cy="62.36" r=".57"/>
    <circle class="cls-4" cx="12.76" cy="28.93" r=".57"/>
    <circle class="cls-4" cx="12.76" cy="39.97" r=".57"/>
    <circle class="cls-4" cx="12.81" cy="51.26" r=".57"/>
    <circle class="cls-4" cx="12.76" cy="62.36" r=".57"/>
    <circle class="cls-4" cx="12.76" cy="73.7" r=".57"/>
    <circle class="cls-4" cx="12.76" cy="85.04" r=".57"/>
    <circle class="cls-4" cx="12.76" cy="96.38" r=".57"/>
    <circle class="cls-4" cx="12.96" cy="107.98" r=".57"/>
    <circle class="cls-4" cx="17.86" cy="17.57" r=".57"/>
    <circle class="cls-4" cx="17.86" cy="28.91" r=".57"/>
    <circle class="cls-4" cx="7.65" cy="33.45" r=".57"/>
    <circle class="cls-4" cx="17.94" cy="39.92" r=".57"/>
    <circle class="cls-4" cx="7.81" cy="44.77" r=".57"/>
    <circle class="cls-4" cx="17.86" cy="51.31" r=".57"/>
    <circle class="cls-4" cx="7.65" cy="56.13" r=".57"/>
    <circle class="cls-4" cx="17.86" cy="62.36" r=".57"/>
    <circle class="cls-4" cx="7.65" cy="67.75" r=".57"/>
    <circle class="cls-4" cx="17.86" cy="73.7" r=".57"/>
    <circle class="cls-4" cx="7.65" cy="78.52" r=".57"/>
    <circle class="cls-4" cx="17.86" cy="85.04" r=".57"/>
    <circle class="cls-4" cx="7.65" cy="89.57" r=".57"/>
    <circle class="cls-4" cx="17.77" cy="96.33" r=".57"/>
    <circle class="cls-4" cx="7.65" cy="100.91" r=".57"/>
  </g>
  <g id="scheme">
    <rect class="cls-12" x="41.15" y="11.91" width="22.68" height="11.34"/>
    <rect class="cls-12" x="63.83" y="11.91" width="22.68" height="11.34"/>
    <rect class="cls-11" x="32.65" y="11.91" width="8.5" height="11.34"/>
    <rect class="cls-11" x="86.51" y="11.91" width="8.5" height="11.34"/>
    <rect class="cls-12" x="41.15" y="23.24" width="22.68" height="11.34"/>
    <rect class="cls-12" x="63.83" y="23.24" width="22.68" height="11.34"/>
    <rect class="cls-11" x="32.65" y="23.24" width="8.5" height="11.34"/>
    <rect class="cls-11" x="86.51" y="23.24" width="8.5" height="11.34"/>
    <rect class="cls-12" x="41.15" y="34.41" width="22.68" height="11.34"/>
    <rect class="cls-12" x="63.83" y="34.41" width="22.68" height="11.34"/>
    <rect class="cls-11" x="32.65" y="34.41" width="8.5" height="11.34"/>
    <rect class="cls-11" x="86.51" y="34.41" width="8.5" height="11.34"/>
    <rect class="cls-12" x="41.15" y="45.74" width="22.68" height="11.34"/>
    <rect class="cls-12" x="63.83" y="45.74" width="22.68" height="11.34"/>
    <rect class="cls-11" x="32.65" y="45.74" width="8.5" height="11.34"/>
    <rect class="cls-11" x="86.51" y="45.74" width="8.5" height="11.34"/>
    <rect class="cls-12" x="41.15" y="56.91" width="22.68" height="11.34"/>
    <rect class="cls-12" x="63.83" y="56.91" width="22.68" height="11.34"/>
    <rect class="cls-11" x="32.65" y="56.91" width="8.5" height="11.34"/>
    <rect class="cls-11" x="86.51" y="56.91" width="8.5" height="11.34"/>
    <rect class="cls-12" x="41.15" y="68.24" width="22.68" height="11.34"/>
    <rect class="cls-12" x="63.83" y="68.24" width="22.68" height="11.34"/>
    <rect class="cls-11" x="32.65" y="68.24" width="8.5" height="11.34"/>
    <rect class="cls-11" x="86.51" y="68.24" width="8.5" height="11.34"/>
    <rect class="cls-12" x="41.15" y="79.58" width="22.68" height="11.34"/>
    <rect class="cls-12" x="63.83" y="79.58" width="22.68" height="11.34"/>
    <rect class="cls-11" x="32.65" y="79.58" width="8.5" height="11.34"/>
    <rect class="cls-11" x="86.51" y="79.58" width="8.5" height="11.34"/>
    <rect class="cls-12" x="41.15" y="90.92" width="22.68" height="11.34"/>
    <rect class="cls-12" x="63.83" y="90.92" width="22.68" height="11.34"/>
    <rect class="cls-11" x="32.65" y="90.92" width="8.5" height="11.34"/>
    <rect class="cls-11" x="86.51" y="90.92" width="8.5" height="11.34"/>
    <rect class="cls-12" x="41.15" y="102.26" width="22.68" height="11.34"/>
    <rect class="cls-12" x="63.83" y="102.26" width="22.68" height="11.34"/>
    <rect class="cls-11" x="32.65" y="102.26" width="8.5" height="11.34"/>
    <rect class="cls-11" x="86.51" y="102.26" width="8.5" height="11.34"/>
  </g>
  <g id="scheme_letters" data-name="scheme letters">
    <text class="cls-2" transform="translate(24.98 107.09)"><tspan x="0" y="0">+</tspan></text>
    <text class="cls-2" transform="translate(20.8 120.98) rotate(-180) scale(1 -1)"><tspan x="0" y="0">+</tspan></text>
    <text class="cls-1" transform="translate(28.41 120.98) rotate(-180) scale(1 -1)"><tspan x="0" y="0">-</tspan></text>
    <text class="cls-5" transform="translate(19.06 116.11)"><tspan x="0" y="0">или</tspan></text>
    <text class="cls-1" transform="translate(17.36 107.09)"><tspan x="0" y="0">-</tspan></text>
    <text class="cls-6" transform="translate(48.04 19.81)"><tspan x="0" y="0">DI1</tspan></text>
    <text class="cls-6" transform="translate(35.64 19.7)"><tspan x="0" y="0">1</tspan></text>
    <text class="cls-6" transform="translate(89.13 19.7)"><tspan x="0" y="0">2</tspan></text>
    <text class="cls-6" transform="translate(70.43 19.7)"><tspan x="0" y="0">DI2</tspan></text>
    <text class="cls-6" transform="translate(47.43 31.15)"><tspan x="0" y="0">DI3</tspan></text>
    <text class="cls-6" transform="translate(35.14 31.04) scale(.83 1)"><tspan x="0" y="0">3</tspan></text>
    <text class="cls-6" transform="translate(88.85 31.04)"><tspan x="0" y="0">4</tspan></text>
    <text class="cls-6" transform="translate(70.16 31.04)"><tspan x="0" y="0">DI4</tspan></text>
    <text class="cls-6" transform="translate(47.43 42.31)"><tspan x="0" y="0">DI5</tspan></text>
    <text class="cls-6" transform="translate(35.02 42.2)"><tspan x="0" y="0">5</tspan></text>
    <text class="cls-6" transform="translate(89 42.2)"><tspan x="0" y="0">6</tspan></text>
    <text class="cls-6" transform="translate(70.31 42.2)"><tspan x="0" y="0">DI6</tspan></text>
    <text class="cls-6" transform="translate(47.36 53.65)"><tspan x="0" y="0">DI7</tspan></text>
    <text class="cls-6" transform="translate(34.96 53.54)"><tspan x="0" y="0">7</tspan></text>
    <text class="cls-6" transform="translate(88.92 53.54)"><tspan x="0" y="0">8</tspan></text>
    <text class="cls-6" transform="translate(69.73 53.54)"><tspan x="0" y="0">DI8</tspan></text>
    <text class="cls-6" transform="translate(47.3 64.81)"><tspan x="0" y="0">DI9</tspan></text>
    <text class="cls-6" transform="translate(34.9 64.7)"><tspan x="0" y="0">9</tspan></text>
    <text class="cls-6" transform="translate(87.76 64.7)"><tspan x="0" y="0">10</tspan></text>
    <text class="cls-6" transform="translate(68.75 64.7)"><tspan x="0" y="0">DI10</tspan></text>
    <text class="cls-6" transform="translate(46.96 76.15)"><tspan x="0" y="0">DI11</tspan></text>
    <text class="cls-6" transform="translate(34.56 76.04)"><tspan x="0" y="0">11</tspan></text>
    <text class="cls-6" transform="translate(88.04 76.04)"><tspan x="0" y="0">12</tspan></text>
    <text class="cls-6" transform="translate(69.35 76.04)"><tspan x="0" y="0">DI12</tspan></text>
    <text class="cls-6" transform="translate(46.35 87.48)"><tspan x="0" y="0">DI13</tspan></text>
    <text class="cls-6" transform="translate(33.95 87.38)"><tspan x="0" y="0">13</tspan></text>
    <text class="cls-6" transform="translate(87.77 87.38)"><tspan x="0" y="0">14</tspan></text>
    <text class="cls-6" transform="translate(69.07 87.38)"><tspan x="0" y="0">DI14</tspan></text>
    <text class="cls-6" transform="translate(46.34 98.82)"><tspan x="0" y="0">DI15</tspan></text>
    <text class="cls-6" transform="translate(33.94 98.72)"><tspan x="0" y="0">15</tspan></text>
    <text class="cls-6" transform="translate(87.92 98.72)"><tspan x="0" y="0">16</tspan></text>
    <text class="cls-6" transform="translate(69.23 98.72)"><tspan x="0" y="0">DI16</tspan></text>
    <text class="cls-3" transform="translate(41.65 110.16)"><tspan x="0" y="0">G_WET</tspan></text>
    <text class="cls-6" transform="translate(33.87 110.06)"><tspan x="0" y="0">17</tspan></text>
    <text class="cls-6" transform="translate(87.83 110.06)"><tspan x="0" y="0">18</tspan></text>
    <text class="cls-3" transform="translate(65.45 110.06)"><tspan x="0" y="0">G_DRY</tspan></text>
  </g>
</svg>