<?xml version="1.0" encoding="UTF-8"?>
<svg xmlns="http://www.w3.org/2000/svg" viewBox="0 0 127.56 141.73">
  <defs>
    <style>
      .cls-1 {
        letter-spacing: 0em;
      }

      .cls-1, .cls-2, .cls-3, .cls-4 {
        fill: #767576;
      }

      .cls-1, .cls-2, .cls-4 {
        font-family: MontserratRoman-Regular, Montserrat;
        font-size: 6px;
        font-variation-settings: 'wght' 400;
      }

      .cls-2 {
        letter-spacing: 0em;
      }

      .cls-5 {
        stroke-dasharray: 3.63 3.63;
      }

      .cls-5, .cls-6, .cls-7, .cls-8, .cls-9, .cls-10, .cls-11 {
        stroke: #767576;
        stroke-miterlimit: 10;
        stroke-width: .5px;
      }

      .cls-5, .cls-6, .cls-7, .cls-8, .cls-10 {
        fill: none;
      }

      .cls-7 {
        stroke-dasharray: 2.94 2.94;
      }

      .cls-8 {
        stroke-dasharray: 3.25 3.25;
      }

      .cls-9 {
        fill: #f7941d;
      }

      .cls-10 {
        stroke-dasharray: 3.54 3.54;
      }

      .cls-11 {
        fill: #bcbec0;
      }
    </style>
  </defs>
  <g id="scheme_w" data-name="scheme w">
    <line class="cls-6" x1="31.29" y1="20.59" x2="27.04" y2="20.59"/>
    <rect class="cls-6" x="15.7" y="18.32" width="11.34" height="4.54"/>
    <line class="cls-6" x1="31.29" y1="31.93" x2="27.04" y2="31.93"/>
    <rect class="cls-6" x="15.7" y="29.66" width="11.34" height="4.54"/>
    <line class="cls-6" x1="31.29" y1="43.26" x2="27.04" y2="43.26"/>
    <rect class="cls-6" x="15.7" y="41" width="11.34" height="4.54"/>
    <line class="cls-6" x1="31.29" y1="54.32" x2="27.04" y2="54.32"/>
    <rect class="cls-6" x="15.7" y="52.05" width="11.34" height="4.54"/>
    <line class="cls-6" x1="31.29" y1="65.66" x2="27.04" y2="65.66"/>
    <rect class="cls-6" x="15.7" y="63.39" width="11.34" height="4.54"/>
    <line class="cls-6" x1="31.29" y1="76.71" x2="27.04" y2="76.71"/>
    <rect class="cls-6" x="15.7" y="74.44" width="11.34" height="4.54"/>
    <line class="cls-6" x1="31.29" y1="88.05" x2="27.04" y2="88.05"/>
    <rect class="cls-6" x="15.7" y="85.78" width="11.34" height="4.54"/>
    <line class="cls-6" x1="31.29" y1="99.67" x2="27.04" y2="99.67"/>
    <rect class="cls-6" x="15.7" y="97.41" width="11.34" height="4.54"/>
    <line class="cls-6" x1="93.65" y1="20.3" x2="97.9" y2="20.3"/>
    <rect class="cls-6" x="97.9" y="18.04" width="11.34" height="4.54"/>
    <line class="cls-6" x1="93.65" y1="31.64" x2="97.9" y2="31.64"/>
    <rect class="cls-6" x="97.9" y="29.37" width="11.34" height="4.54"/>
    <line class="cls-6" x1="93.65" y1="42.98" x2="97.9" y2="42.98"/>
    <rect class="cls-6" x="97.9" y="40.71" width="11.34" height="4.54"/>
    <line class="cls-6" x1="93.65" y1="54.04" x2="97.9" y2="54.04"/>
    <rect class="cls-6" x="97.9" y="51.77" width="11.34" height="4.54"/>
    <line class="cls-6" x1="93.65" y1="65.37" x2="97.9" y2="65.37"/>
    <rect class="cls-6" x="97.9" y="63.11" width="11.34" height="4.54"/>
    <line class="cls-6" x1="93.65" y1="76.43" x2="97.9" y2="76.43"/>
    <rect class="cls-6" x="97.9" y="74.16" width="11.34" height="4.54"/>
    <line class="cls-6" x1="93.65" y1="87.77" x2="97.9" y2="87.77"/>
    <rect class="cls-6" x="97.9" y="85.5" width="11.34" height="4.54"/>
    <line class="cls-6" x1="93.65" y1="99.39" x2="97.9" y2="99.39"/>
    <rect class="cls-6" x="97.9" y="97.12" width="11.34" height="4.54"/>
    <polyline class="cls-6" points="15.7 20.59 11.45 20.59 11.45 120.08 113.39 120.05 113.39 20.27 109.13 20.27"/>
    <line class="cls-6" x1="104.2" y1="105.99" x2="104.2" y2="114.5"/>
    <line class="cls-6" x1="102.07" y1="112.37" x2="102.07" y2="108.12"/>
    <line class="cls-6" x1="93.65" y1="110.16" x2="101.94" y2="110.16"/>
    <g>
      <line class="cls-6" x1="113.78" y1="110.16" x2="115.28" y2="110.15"/>
      <polyline class="cls-6" points="117.56 110.14 119.06 110.13 119.06 111.63"/>
      <line class="cls-5" x1="119.06" y1="115.26" x2="119.06" y2="120.7"/>
      <polyline class="cls-6" points="119.06 122.52 119.06 124.02 117.56 124.02"/>
      <line class="cls-7" x1="114.62" y1="124.02" x2="22.07" y2="124.05"/>
      <polyline class="cls-6" points="20.6 124.05 19.1 124.05 19.1 122.55"/>
      <line class="cls-10" x1="19.1" y1="119.02" x2="19.1" y2="113.71"/>
      <polyline class="cls-6" points="19.1 111.94 19.1 110.44 20.6 110.44"/>
      <line class="cls-8" x1="23.85" y1="110.44" x2="28.73" y2="110.44"/>
      <line class="cls-6" x1="30.35" y1="110.44" x2="31.85" y2="110.44"/>
    </g>
  </g>
  <g id="_Точки" data-name="Точки">
    <circle class="cls-3" cx="113.34" cy="31.55" r=".57"/>
    <circle class="cls-3" cx="113.34" cy="42.89" r=".57"/>
    <circle class="cls-3" cx="113.34" cy="53.95" r=".57"/>
    <circle class="cls-3" cx="113.34" cy="65.29" r=".57"/>
    <circle class="cls-3" cx="113.34" cy="76.34" r=".57"/>
    <circle class="cls-3" cx="113.36" cy="87.68" r=".57"/>
    <circle class="cls-3" cx="113.34" cy="99.3" r=".57"/>
    <circle class="cls-3" cx="113.34" cy="110.07" r=".57"/>
    <circle class="cls-3" cx="11.58" cy="32.01" r=".57"/>
    <circle class="cls-3" cx="11.58" cy="43.35" r=".57"/>
    <circle class="cls-3" cx="11.58" cy="54.41" r=".57"/>
    <circle class="cls-3" cx="11.58" cy="65.75" r=".57"/>
    <circle class="cls-3" cx="11.58" cy="76.8" r=".57"/>
    <circle class="cls-3" cx="11.59" cy="88.14" r=".57"/>
    <circle class="cls-3" cx="11.58" cy="99.76" r=".57"/>
  </g>
  <g id="scheme">
    <rect class="cls-11" x="39.79" y="14.42" width="22.68" height="11.34"/>
    <rect class="cls-11" x="62.47" y="14.42" width="22.68" height="11.34"/>
    <rect class="cls-9" x="31.29" y="14.42" width="8.5" height="11.34"/>
    <rect class="cls-9" x="85.15" y="14.42" width="8.5" height="11.34"/>
    <rect class="cls-11" x="39.79" y="25.76" width="22.68" height="11.34"/>
    <rect class="cls-11" x="62.47" y="25.76" width="22.68" height="11.34"/>
    <rect class="cls-9" x="31.29" y="25.76" width="8.5" height="11.34"/>
    <rect class="cls-9" x="85.15" y="25.76" width="8.5" height="11.34"/>
    <rect class="cls-11" x="39.79" y="36.92" width="22.68" height="11.34"/>
    <rect class="cls-11" x="62.47" y="36.92" width="22.68" height="11.34"/>
    <rect class="cls-9" x="31.29" y="36.92" width="8.5" height="11.34"/>
    <rect class="cls-9" x="85.15" y="36.92" width="8.5" height="11.34"/>
    <rect class="cls-11" x="39.79" y="48.26" width="22.68" height="11.34"/>
    <rect class="cls-11" x="62.47" y="48.26" width="22.68" height="11.34"/>
    <rect class="cls-9" x="31.29" y="48.26" width="8.5" height="11.34"/>
    <rect class="cls-9" x="85.15" y="48.26" width="8.5" height="11.34"/>
    <rect class="cls-11" x="39.79" y="59.42" width="22.68" height="11.34"/>
    <rect class="cls-11" x="62.47" y="59.42" width="22.68" height="11.34"/>
    <rect class="cls-9" x="31.29" y="59.42" width="8.5" height="11.34"/>
    <rect class="cls-9" x="85.15" y="59.42" width="8.5" height="11.34"/>
    <rect class="cls-11" x="39.79" y="70.76" width="22.68" height="11.34"/>
    <rect class="cls-11" x="62.47" y="70.76" width="22.68" height="11.34"/>
    <rect class="cls-9" x="31.29" y="70.76" width="8.5" height="11.34"/>
    <rect class="cls-9" x="85.15" y="70.76" width="8.5" height="11.34"/>
    <rect class="cls-11" x="39.79" y="82.1" width="22.68" height="11.34"/>
    <rect class="cls-11" x="62.47" y="82.1" width="22.68" height="11.34"/>
    <rect class="cls-9" x="31.29" y="82.1" width="8.5" height="11.34"/>
    <rect class="cls-9" x="85.15" y="82.1" width="8.5" height="11.34"/>
    <rect class="cls-11" x="39.79" y="93.44" width="22.68" height="11.34"/>
    <rect class="cls-11" x="62.47" y="93.44" width="22.68" height="11.34"/>
    <rect class="cls-9" x="31.29" y="93.44" width="8.5" height="11.34"/>
    <rect class="cls-9" x="85.15" y="93.44" width="8.5" height="11.34"/>
    <rect class="cls-11" x="39.79" y="104.78" width="22.68" height="11.34"/>
    <rect class="cls-11" x="62.47" y="104.78" width="22.68" height="11.34"/>
    <rect class="cls-9" x="31.29" y="104.78" width="8.5" height="11.34"/>
    <rect class="cls-9" x="85.15" y="104.78" width="8.5" height="11.34"/>
  </g>
  <g id="scheme_letters" data-name="scheme letters">
    <text class="cls-2" transform="translate(36 129.69)"><tspan x="0" y="0">для индуктивной нагрузки</tspan></text>
    <text class="cls-2" transform="translate(105.31 109.36)"><tspan x="0" y="0">+</tspan></text>
    <text class="cls-1" transform="translate(97.69 109.36)"><tspan x="0" y="0">-</tspan></text>
    <text class="cls-4" transform="translate(45.23 22.25)"><tspan x="0" y="0">DO1</tspan></text>
    <text class="cls-4" transform="translate(34.28 22.22)"><tspan x="0" y="0">1</tspan></text>
    <text class="cls-4" transform="translate(87.77 22.22)"><tspan x="0" y="0">2</tspan></text>
    <text class="cls-4" transform="translate(67.46 22.22)"><tspan x="0" y="0">DO2</tspan></text>
    <text class="cls-4" transform="translate(44.62 33.59)"><tspan x="0" y="0">DO3</tspan></text>
    <text class="cls-4" transform="translate(33.78 33.56) scale(.83 1)"><tspan x="0" y="0">3</tspan></text>
    <text class="cls-4" transform="translate(87.49 33.56)"><tspan x="0" y="0">4</tspan></text>
    <text class="cls-4" transform="translate(67.18 33.56)"><tspan x="0" y="0">DO4</tspan></text>
    <text class="cls-4" transform="translate(44.61 44.75)"><tspan x="0" y="0">DO5</tspan></text>
    <text class="cls-4" transform="translate(33.66 44.72)"><tspan x="0" y="0">5</tspan></text>
    <text class="cls-4" transform="translate(87.64 44.72)"><tspan x="0" y="0">6</tspan></text>
    <text class="cls-4" transform="translate(67.34 44.72)"><tspan x="0" y="0">DO6</tspan></text>
    <text class="cls-4" transform="translate(44.55 56.09)"><tspan x="0" y="0">DO7</tspan></text>
    <text class="cls-4" transform="translate(33.6 56.06)"><tspan x="0" y="0">7</tspan></text>
    <text class="cls-4" transform="translate(87.56 56.06)"><tspan x="0" y="0">8</tspan></text>
    <text class="cls-4" transform="translate(66.76 56.06)"><tspan x="0" y="0">DO8</tspan></text>
    <text class="cls-4" transform="translate(44.49 67.25)"><tspan x="0" y="0">DO9</tspan></text>
    <text class="cls-4" transform="translate(33.54 67.22)"><tspan x="0" y="0">9</tspan></text>
    <text class="cls-4" transform="translate(86.4 67.22)"><tspan x="0" y="0">10</tspan></text>
    <text class="cls-4" transform="translate(65.78 67.22)"><tspan x="0" y="0">DO10</tspan></text>
    <text class="cls-4" transform="translate(44.15 78.59)"><tspan x="0" y="0">DO11</tspan></text>
    <text class="cls-4" transform="translate(33.2 78.56)"><tspan x="0" y="0">11</tspan></text>
    <text class="cls-4" transform="translate(86.68 78.56)"><tspan x="0" y="0">12</tspan></text>
    <text class="cls-4" transform="translate(66.38 78.56)"><tspan x="0" y="0">DO12</tspan></text>
    <text class="cls-4" transform="translate(43.54 89.93)"><tspan x="0" y="0">DO13</tspan></text>
    <text class="cls-4" transform="translate(32.59 89.89)"><tspan x="0" y="0">13</tspan></text>
    <text class="cls-4" transform="translate(86.41 89.89)"><tspan x="0" y="0">14</tspan></text>
    <text class="cls-4" transform="translate(66.1 89.89)"><tspan x="0" y="0">DO14</tspan></text>
    <text class="cls-4" transform="translate(43.53 101.27)"><tspan x="0" y="0">DO15</tspan></text>
    <text class="cls-4" transform="translate(32.58 101.23)"><tspan x="0" y="0">15</tspan></text>
    <text class="cls-4" transform="translate(86.56 101.23)"><tspan x="0" y="0">16</tspan></text>
    <text class="cls-4" transform="translate(66.26 101.23)"><tspan x="0" y="0">DO16</tspan></text>
    <text class="cls-4" transform="translate(41.61 112.39)"><tspan x="0" y="0">PCOM</tspan></text>
    <text class="cls-4" transform="translate(32.51 112.57)"><tspan x="0" y="0">17</tspan></text>
    <text class="cls-4" transform="translate(86.47 112.57)"><tspan x="0" y="0">18</tspan></text>
    <text class="cls-4" transform="translate(66.93 112.57)"><tspan x="0" y="0">GND</tspan></text>
  </g>
</svg>