<?xml version="1.0" encoding="UTF-8"?>
<svg id="Layer_1" xmlns="http://www.w3.org/2000/svg" version="1.1" viewBox="0 0 127.6 141.7">
  <!-- Generator: Adobe Illustrator 29.1.0, SVG Export Plug-In . SVG Version: 2.1.0 Build 142)  -->
  <defs>
    <style>
      .st0, .st1, .st2 {
        stroke: #767576;
        stroke-width: .5px;
      }

      .st0, .st1, .st2, .st3 {
        stroke-miterlimit: 10;
      }

      .st0, .st3 {
        fill: none;
      }

      .st4 {
        isolation: isolate;
      }

      .st1 {
        fill: #f7941d;
      }

      .st2 {
        fill: #bcbec0;
      }

      .st3 {
        stroke: #000;
      }

      .st5 {
        fill: #767576;
      }
    </style>
  </defs>
  <g id="scheme_w">
    <polyline class="st0" points="28.7 66.4 28.7 55.6 34.2 55.6"/>
    <polyline class="st0" points="34.9 89.9 28.7 89.9 28.7 78.3"/>
    <polyline class="st0" points="35.2 100.8 28.7 100.8 28.7 112.6 34.3 112.6"/>
    <polyline class="st0" points="28.7 112.6 23.9 112.6 23.9 122 105 122 105 112.6 100.2 112.6"/>
    <line class="st0" x1="28.7" y1="66.5" x2="23.6" y2="66.5"/>
    <line class="st0" x1="23.5" y1="62.1" x2="23.5" y2="70.6"/>
    <line class="st0" x1="21.4" y1="68.5" x2="21.4" y2="64.3"/>
    <g class="st4">
      <g class="st4">
        <path class="st5" d="M25,63.4h0c0-.1,2.5-.1,2.5-.1h0c0,.1-2.5.1-2.5.1ZM26.2,64.6v-2.4h.1v2.4h-.1Z"/>
      </g>
    </g>
    <g class="st4">
      <g class="st4">
        <path class="st5" d="M17.2,64h0c0-.1,1.5-.1,1.5-.1h0c0,.1-1.5.1-1.5.1Z"/>
      </g>
    </g>
    <polyline class="st0" points="34.5 78.4 16.3 78.4 16.3 66.4 21.2 66.4"/>
    <polyline class="st0" points="100.2 66.4 100.2 55.6 94.8 55.6"/>
    <polyline class="st0" points="94.2 90 100.4 90 100.4 78.4"/>
    <polyline class="st0" points="93.7 100.8 100.2 100.8 100.2 112.6 94.6 112.6"/>
    <line class="st0" x1="100.4" y1="66.5" x2="105.2" y2="66.5"/>
    <line class="st0" x1="105.4" y1="62.1" x2="105.4" y2="70.6"/>
    <line class="st0" x1="107.6" y1="68.5" x2="107.6" y2="64.3"/>
    <g class="st4">
      <g class="st4">
        <path class="st5" d="M101.5,62.7h0c0-.1,2.5-.1,2.5-.1h0c0,.1-2.5.1-2.5.1ZM102.6,63.9v-2.4h.1v2.4h-.1Z"/>
      </g>
    </g>
    <g class="st4">
      <g class="st4">
        <path class="st5" d="M110.2,64h0c0-.1,1.5-.1,1.5-.1h0c0,.1-1.5.1-1.5.1Z"/>
      </g>
    </g>
    <polyline class="st0" points="94.4 78.4 112.7 78.4 112.7 66.4 107.7 66.4"/>
    <line class="st0" x1="105" y1="122" x2="105" y2="125"/>
    <line class="st0" x1="99.4" y1="125" x2="110.7" y2="125"/>
    <line class="st0" x1="102.2" y1="127.2" x2="107.9" y2="127.2"/>
    <line class="st0" x1="103.6" y1="129.3" x2="106.4" y2="129.3"/>
    <circle class="st0" cx="104.9" cy="122" r=".6"/>
    <line class="st0" x1="28.7" y1="66.5" x2="34.3" y2="66.5"/>
    <line class="st0" x1="100.1" y1="66.5" x2="94.4" y2="66.5"/>
  </g>
  <g id="_Точки">
    <circle class="st5" cx="28.7" cy="66.3" r=".6"/>
    <circle class="st5" cx="28.7" cy="78.4" r=".6"/>
    <ellipse class="st5" cx="28.7" cy="112.7" rx=".7" ry=".7"/>
    <circle class="st5" cx="100.2" cy="66.4" r=".6"/>
    <circle class="st5" cx="100.4" cy="78.4" r=".6"/>
    <ellipse class="st5" cx="100.3" cy="112.7" rx=".7" ry=".7"/>
  </g>
  <g id="scheme">
    <rect class="st2" x="41.4" y="15.9" width="22.7" height="11.3"/>
    <rect class="st2" x="64.1" y="15.9" width="22.7" height="11.3"/>
    <rect class="st1" x="32.9" y="15.9" width="8.5" height="11.3"/>
    <rect class="st1" x="86.8" y="15.9" width="8.5" height="11.3"/>
    <rect class="st2" x="41.4" y="27.2" width="22.7" height="11.3"/>
    <rect class="st2" x="64.1" y="27.2" width="22.7" height="11.3"/>
    <rect class="st1" x="32.9" y="27.2" width="8.5" height="11.3"/>
    <rect class="st1" x="86.8" y="27.2" width="8.5" height="11.3"/>
    <rect class="st2" x="41.4" y="38.4" width="22.7" height="11.3"/>
    <rect class="st2" x="64.1" y="38.4" width="22.7" height="11.3"/>
    <rect class="st1" x="32.9" y="38.4" width="8.5" height="11.3"/>
    <rect class="st1" x="86.8" y="38.4" width="8.5" height="11.3"/>
    <rect class="st2" x="41.4" y="49.7" width="22.7" height="11.3"/>
    <rect class="st2" x="64.1" y="49.7" width="22.7" height="11.3"/>
    <rect class="st1" x="32.9" y="49.7" width="8.5" height="11.3"/>
    <rect class="st1" x="86.8" y="49.7" width="8.5" height="11.3"/>
    <rect class="st2" x="41.4" y="60.9" width="22.7" height="11.3"/>
    <rect class="st2" x="64.1" y="60.9" width="22.7" height="11.3"/>
    <rect class="st1" x="32.9" y="60.9" width="8.5" height="11.3"/>
    <rect class="st1" x="86.8" y="60.9" width="8.5" height="11.3"/>
    <rect class="st2" x="41.4" y="72.2" width="22.7" height="11.3"/>
    <rect class="st2" x="64.1" y="72.2" width="22.7" height="11.3"/>
    <rect class="st1" x="32.9" y="72.2" width="8.5" height="11.3"/>
    <rect class="st1" x="86.8" y="72.2" width="8.5" height="11.3"/>
    <rect class="st2" x="41.4" y="83.6" width="22.7" height="11.3"/>
    <rect class="st2" x="64.1" y="83.6" width="22.7" height="11.3"/>
    <rect class="st1" x="32.9" y="83.6" width="8.5" height="11.3"/>
    <rect class="st1" x="86.8" y="83.6" width="8.5" height="11.3"/>
    <rect class="st2" x="41.4" y="94.9" width="22.7" height="11.3"/>
    <rect class="st2" x="64.1" y="94.9" width="22.7" height="11.3"/>
    <rect class="st1" x="32.9" y="94.9" width="8.5" height="11.3"/>
    <rect class="st1" x="86.8" y="94.9" width="8.5" height="11.3"/>
    <rect class="st2" x="41.4" y="106.2" width="22.7" height="11.3"/>
    <rect class="st2" x="64.1" y="106.2" width="22.7" height="11.3"/>
    <rect class="st1" x="32.9" y="106.2" width="8.5" height="11.3"/>
    <rect class="st1" x="86.8" y="106.2" width="8.5" height="11.3"/>
  </g>
  <g id="scheme_letters">
    <g class="st4">
      <g class="st4">
        <path class="st5" d="M52,22.1h0c0-.1,1.5-.1,1.5-.1h0c0,.1-1.5.1-1.5.1Z"/>
      </g>
    </g>
    <g class="st4">
      <g class="st4">
        <path class="st5" d="M37.1,23.7v-4.1h0s-1.1,0-1.1,0h0c0-.1,1.2-.1,1.2-.1v4.2h-.1Z"/>
      </g>
    </g>
    <g class="st4">
      <g class="st4">
        <path class="st5" d="M89.7,23.7h0c0,0,1.8-1.9,1.8-1.9.2-.2.3-.3.4-.5,0-.1.2-.3.2-.4s0-.2,0-.4c0-.3,0-.5-.3-.7s-.5-.3-.9-.3-.5,0-.8.1-.4.2-.5.4h0c.2-.3.3-.4.6-.5.2,0,.5-.1.8-.1s.5,0,.7.1c.2,0,.3.2.4.4.1.2.2.4.2.6s0,.3,0,.4c0,.1-.1.3-.2.4,0,.1-.2.3-.4.5l-1.8,1.8h0s2.7,0,2.7,0h0c0,.1-2.8.1-2.8.1Z"/>
      </g>
    </g>
    <g class="st4">
      <g class="st4">
        <path class="st5" d="M75,22.1h0c0-.1,1.5-.1,1.5-.1h0c0,.1-1.5.1-1.5.1Z"/>
      </g>
    </g>
    <g class="st4">
      <g class="st4">
        <path class="st5" d="M52,33.5h0c0-.1,1.5-.1,1.5-.1h0c0,.1-1.5.1-1.5.1Z"/>
      </g>
    </g>
    <g class="st4">
      <g class="st4">
        <path class="st5" d="M36.7,35c-.3,0-.5,0-.7-.2s-.4-.3-.5-.4h0c0,0,.2.2.4.3.2.1.4.2.7.2s.6,0,.8-.3c.2-.2.3-.4.3-.8s0-.6-.3-.8c-.2-.2-.5-.3-.8-.3h-.2c0,0,1.2-1.9,1.2-1.9h0s-2,0-2,0h0c0-.1,2.1-.1,2.1-.1h0c0,0-1.2,1.9-1.2,1.9h0s0,0,0,0c.4,0,.7.1.9.3.2.2.3.5.3.8s0,.4-.1.6c0,.2-.2.3-.4.4-.2,0-.4.1-.6.1Z"/>
      </g>
    </g>
    <g class="st4">
      <g class="st4">
        <path class="st5" d="M89.4,33.8h0c0,0,2.4-3,2.4-3h.1l-2.4,2.9h0s3.4,0,3.4,0h0c0,.1-3.5.1-3.5.1ZM91.8,35v-1.2h0v-1.2h.1v2.5h-.1Z"/>
      </g>
    </g>
    <g class="st4">
      <g class="st4">
        <path class="st5" d="M75,33.5h0c0-.1,1.5-.1,1.5-.1h0c0,.1-1.5.1-1.5.1Z"/>
      </g>
    </g>
    <g class="st4">
      <g class="st4">
        <path class="st5" d="M52,44.6h0c0-.1,1.5-.1,1.5-.1h0c0,.1-1.5.1-1.5.1Z"/>
      </g>
    </g>
    <g class="st4">
      <g class="st4">
        <path class="st5" d="M36.9,46.2c-.3,0-.6,0-.8-.2-.3-.1-.5-.3-.6-.4h0c.1,0,.3.2.5.3.2.1.5.2.8.2.4,0,.8-.1,1-.3s.3-.5.3-.8,0-.4-.2-.6-.3-.3-.5-.4c-.2,0-.6-.1-1-.1h-.8l.2-1.9h2.1c0,.1-2.1.1-2.1.1h0s-.2,1.8-.2,1.8h0c0,0,.7,0,.7,0,.4,0,.8,0,1,.1.3,0,.4.2.5.4.1.2.2.4.2.6s0,.4-.2.6c-.1.2-.3.3-.5.4-.2.1-.5.2-.8.2Z"/>
      </g>
    </g>
    <g class="st4">
      <g class="st4">
        <path class="st5" d="M91.3,46.2c-.4,0-.7,0-.9-.3s-.4-.4-.5-.7c-.1-.3-.2-.7-.2-1.1s0-.9.2-1.2c.1-.3.4-.5.6-.7.3-.2.6-.2.9-.2s.3,0,.5,0c.2,0,.3,0,.4.2h0c-.1,0-.2,0-.4,0-.1,0-.3,0-.5,0-.5,0-.9.2-1.2.5-.3.3-.5.8-.5,1.5s0,.2,0,.4c0,.2,0,.3,0,.5h0c0-.2,0-.4.2-.6.1-.2.3-.3.5-.4.2,0,.4-.1.7-.1s.5,0,.7.1c.2.1.4.2.5.4.1.2.2.4.2.6s0,.5-.2.6c-.1.2-.3.3-.5.4-.2.1-.4.2-.7.2ZM91.3,46.1c.2,0,.5,0,.6-.1.2,0,.3-.2.4-.4s.2-.4.2-.6c0-.3-.1-.6-.3-.8-.2-.2-.5-.3-.9-.3s-.5,0-.7.2c-.2,0-.3.2-.5.4-.1.2-.2.4-.2.6s0,.3.1.5c.1.2.2.3.4.4.2.1.4.2.7.2Z"/>
      </g>
    </g>
    <g class="st4">
      <g class="st4">
        <path class="st5" d="M75,44.6h0c0-.1,1.5-.1,1.5-.1h0c0,.1-1.5.1-1.5.1Z"/>
      </g>
    </g>
    <g class="st4">
      <g class="st4">
        <path class="st5" d="M43,55.5h0c0-.1,2.5-.1,2.5-.1h0c0,.1-2.5.1-2.5.1ZM44.1,56.6v-2.4h.1v2.4h-.1Z"/>
        <path class="st5" d="M46.1,57.5h0c0,0,1.8-1.9,1.8-1.9.2-.2.3-.3.4-.5,0-.1.2-.3.2-.4s0-.2,0-.4c0-.3,0-.5-.3-.7s-.5-.3-.9-.3-.5,0-.8.1-.4.2-.5.4h0c.2-.3.3-.4.6-.5s.5-.1.8-.1.5,0,.7.1c.2,0,.3.2.4.4s.2.4.2.6,0,.3,0,.4c0,.1-.1.3-.2.4,0,.1-.2.3-.4.5l-1.8,1.8h0s2.7,0,2.7,0h0c0,.1-2.8.1-2.8.1Z"/>
        <path class="st5" d="M49.5,56.3h0c0,0,2.4-3,2.4-3h.1l-2.4,2.9h0s3.4,0,3.4,0h0c0,.1-3.5.1-3.5.1ZM51.9,57.5v-1.2h0v-1.2h.1v2.5h-.1Z"/>
        <path class="st5" d="M53.9,57.5v-4.2h1.6c.4,0,.7,0,1,.3.2.2.4.4.4.8s-.1.6-.4.8c-.2.2-.5.3-.9.3h.1c.5,0,.8,0,1,.2.2.2.4.5.4.8s-.1.6-.4.8c-.2.2-.6.3-1.1.3h-1.7ZM54,55.3h1.5c.4,0,.7,0,.9-.2s.3-.4.3-.7-.1-.5-.3-.7-.5-.2-.9-.2h-1.5v1.9ZM54,57.4h1.6c.4,0,.8,0,1-.2.2-.2.3-.4.3-.7s-.1-.6-.3-.7-.6-.2-1-.2h-1.6v2Z"/>
        <path class="st5" d="M57.6,57.6h0c0-.1,3-.1,3-.1h0c0,.1-3,.1-3,.1Z"/>
        <path class="st5" d="M61.7,57.5v-4.1h0s-1.1,0-1.1,0h0c0-.1,1.2-.1,1.2-.1v4.2h-.1Z"/>
      </g>
    </g>
    <g class="st4">
      <g class="st4">
        <path class="st5" d="M36.3,57.5l1.9-4.1h0s-2.8,0-2.8,0h0s0,.8,0,.8h-.1v-1h2.9c0,0-1.9,4.2-1.9,4.2h-.1Z"/>
      </g>
    </g>
    <g class="st4">
      <g class="st4">
        <path class="st5" d="M91.1,57.5c-.3,0-.6,0-.8-.1-.2,0-.4-.2-.5-.4s-.2-.4-.2-.6,0-.4.2-.6.3-.3.5-.4c.2,0,.5-.1.8-.1s.6,0,.8.1c.2,0,.4.2.5.4s.2.4.2.6,0,.4-.2.6-.3.3-.5.4c-.2,0-.5.1-.8.1ZM91.1,57.4c.5,0,.8,0,1.1-.3.2-.2.4-.4.4-.8s-.1-.6-.4-.7c-.2-.2-.6-.3-1.1-.3s-.8,0-1,.3c-.2.2-.4.4-.4.7s.1.6.4.8c.2.2.6.3,1,.3ZM91.1,55.4c-.3,0-.5,0-.8-.1s-.4-.2-.5-.4c-.1-.2-.2-.3-.2-.5s0-.4.2-.6c.1-.2.3-.3.5-.4s.5-.1.7-.1.5,0,.7.1.4.2.5.4c.1.2.2.3.2.6s0,.4-.2.5-.3.3-.5.4-.5.1-.8.1ZM91.1,55.3c.4,0,.7,0,.9-.2s.3-.4.3-.7-.1-.5-.3-.7c-.2-.2-.5-.3-.9-.3s-.7,0-.9.3c-.2.2-.3.4-.3.7s.1.5.3.7.5.3.9.3Z"/>
      </g>
    </g>
    <g class="st4">
      <g class="st4">
        <path class="st5" d="M64.9,55.5h0c0-.1,2.5-.1,2.5-.1h0c0,.1-2.5.1-2.5.1ZM66.1,56.6v-2.4h.1v2.4h-.1Z"/>
        <path class="st5" d="M68.1,57.5h0c0,0,1.8-1.9,1.8-1.9.2-.2.3-.3.4-.5,0-.1.2-.3.2-.4s0-.2,0-.4c0-.3,0-.5-.3-.7s-.5-.3-.9-.3-.5,0-.8.1-.4.2-.5.4h0c.2-.3.3-.4.6-.5.2,0,.5-.1.8-.1s.5,0,.7.1.3.2.4.4c.1.2.2.4.2.6s0,.3,0,.4-.1.3-.2.4c0,.1-.2.3-.4.5l-1.8,1.8h0s2.7,0,2.7,0h0c0,.1-2.8.1-2.8.1Z"/>
        <path class="st5" d="M71.4,56.3h0c0,0,2.4-3,2.4-3h.1l-2.4,2.9h0s3.4,0,3.4,0h0c0,.1-3.5.1-3.5.1ZM73.8,57.5v-1.2h0v-1.2h.1v2.5h-.1Z"/>
        <path class="st5" d="M75.8,57.5v-4.2h1.6c.4,0,.7,0,1,.3.2.2.4.4.4.8s-.1.6-.4.8c-.2.2-.5.3-.9.3h.1c.5,0,.8,0,1,.2.2.2.4.5.4.8s-.1.6-.4.8c-.2.2-.6.3-1.1.3h-1.7ZM75.9,55.3h1.5c.4,0,.7,0,.9-.2s.3-.4.3-.7-.1-.5-.3-.7-.5-.2-.9-.2h-1.5v1.9ZM75.9,57.4h1.6c.4,0,.8,0,1-.2.2-.2.3-.4.3-.7s-.1-.6-.3-.7c-.2-.2-.6-.2-1-.2h-1.6v2Z"/>
        <path class="st5" d="M79.5,57.6h0c0-.1,3-.1,3-.1h0c0,.1-3,.1-3,.1Z"/>
        <path class="st5" d="M82.8,57.5h0c0,0,1.8-1.9,1.8-1.9.2-.2.3-.3.4-.5,0-.1.2-.3.2-.4s0-.2,0-.4c0-.3,0-.5-.3-.7s-.5-.3-.9-.3-.5,0-.8.1-.4.2-.5.4h0c.2-.3.3-.4.6-.5.2,0,.5-.1.8-.1s.5,0,.7.1.3.2.4.4c.1.2.2.4.2.6s0,.3,0,.4-.1.3-.2.4c0,.1-.2.3-.4.5l-1.8,1.8h0s2.7,0,2.7,0h0c0,.1-2.8.1-2.8.1Z"/>
      </g>
    </g>
    <g class="st4">
      <g class="st4">
        <path class="st5" d="M43,66.6h0c0-.1,2.5-.1,2.5-.1h0c0,.1-2.5.1-2.5.1ZM44.1,67.8v-2.4h.1v2.4h-.1Z"/>
        <path class="st5" d="M46.1,68.7h0c0,0,1.8-1.9,1.8-1.9.2-.2.3-.3.4-.5,0-.1.2-.3.2-.4s0-.2,0-.4c0-.3,0-.5-.3-.7s-.5-.3-.9-.3-.5,0-.8.1-.4.2-.5.4h0c.2-.3.3-.4.6-.5s.5-.1.8-.1.5,0,.7.1c.2,0,.3.2.4.4s.2.4.2.6,0,.3,0,.4c0,.1-.1.3-.2.4,0,.1-.2.3-.4.5l-1.8,1.8h0s2.7,0,2.7,0h0c0,.1-2.8.1-2.8.1Z"/>
        <path class="st5" d="M49.5,67.4h0c0,0,2.4-3,2.4-3h.1l-2.4,2.9h0s3.4,0,3.4,0h0c0,.1-3.5.1-3.5.1ZM51.9,68.7v-1.2h0v-1.2h.1v2.5h-.1Z"/>
        <path class="st5" d="M53.9,68.7v-4.2h1.6c.4,0,.7,0,1,.3.2.2.4.4.4.8s-.1.6-.4.8c-.2.2-.5.3-.9.3h.1c.5,0,.8,0,1,.2.2.2.4.5.4.8s-.1.6-.4.8c-.2.2-.6.3-1.1.3h-1.7ZM54,66.5h1.5c.4,0,.7,0,.9-.2s.3-.4.3-.7-.1-.5-.3-.7-.5-.2-.9-.2h-1.5v1.9ZM54,68.6h1.6c.4,0,.8,0,1-.2.2-.2.3-.4.3-.7s-.1-.6-.3-.7-.6-.2-1-.2h-1.6v2Z"/>
        <path class="st5" d="M57.6,68.8h0c0-.1,3-.1,3-.1h0c0,.1-3,.1-3,.1Z"/>
        <path class="st5" d="M61.7,68.7v-4.1h0s-1.1,0-1.1,0h0c0-.1,1.2-.1,1.2-.1v4.2h-.1Z"/>
      </g>
    </g>
    <g class="st4">
      <g class="st4">
        <path class="st5" d="M36.7,64.5c.4,0,.7,0,.9.3.2.2.4.4.5.7.1.3.2.7.2,1.1s0,.9-.2,1.2c-.1.3-.4.5-.6.7-.3.2-.6.2-.9.2s-.3,0-.5,0c-.2,0-.3,0-.4-.2h0c.1,0,.2,0,.4,0,.1,0,.3,0,.5,0,.5,0,.9-.2,1.2-.5.3-.3.5-.8.5-1.5s0-.2,0-.4c0-.2,0-.3,0-.5h0c0,.2,0,.4-.2.6-.1.2-.3.3-.5.4s-.4.2-.7.2-.5,0-.7-.2-.4-.2-.5-.4c-.1-.2-.2-.4-.2-.6s0-.5.2-.6c.1-.2.3-.3.5-.4.2-.1.4-.2.7-.2ZM36.7,64.6c-.2,0-.5,0-.6.1-.2,0-.3.2-.4.4s-.2.4-.2.6c0,.3.1.6.3.8.2.2.5.3.9.3s.5,0,.7-.2c.2,0,.3-.2.5-.4s.2-.4.2-.6,0-.3-.1-.5c-.1-.2-.2-.3-.4-.4-.2-.1-.4-.2-.7-.2Z"/>
      </g>
    </g>
    <g class="st4">
      <g class="st4">
        <path class="st5" d="M89.2,68.7v-4.1h0s-1.1,0-1.1,0h0c0-.1,1.2-.1,1.2-.1v4.2h-.1Z"/>
        <path class="st5" d="M92,68.7c-.3,0-.6,0-.8-.3-.2-.2-.4-.4-.6-.7-.1-.3-.2-.7-.2-1.1s0-.8.2-1.1c.1-.3.3-.6.6-.7.2-.2.5-.3.8-.3s.6,0,.8.3.4.4.6.7c.1.3.2.7.2,1.1s0,.8-.2,1.1c-.1.3-.3.6-.6.7s-.5.3-.8.3ZM92,68.6c.3,0,.6,0,.8-.2.2-.2.4-.4.5-.7s.2-.7.2-1.1,0-.8-.2-1.1-.3-.5-.5-.7c-.2-.2-.5-.2-.8-.2s-.6,0-.8.2c-.2.2-.4.4-.5.7s-.2.7-.2,1.1,0,.8.2,1.1.3.5.5.7.5.2.8.2Z"/>
      </g>
    </g>
    <g class="st4">
      <g class="st4">
        <path class="st5" d="M65.1,66.6h0c0-.1,2.5-.1,2.5-.1h0c0,.1-2.5.1-2.5.1ZM66.2,67.8v-2.4h.1v2.4h-.1Z"/>
        <path class="st5" d="M68.2,68.7h0c0,0,1.8-1.9,1.8-1.9.2-.2.3-.3.4-.5,0-.1.2-.3.2-.4s0-.2,0-.4c0-.3,0-.5-.3-.7s-.5-.3-.9-.3-.5,0-.8.1-.4.2-.5.4h0c.2-.3.3-.4.6-.5.2,0,.5-.1.8-.1s.5,0,.7.1.3.2.4.4c.1.2.2.4.2.6s0,.3,0,.4-.1.3-.2.4c0,.1-.2.3-.4.5l-1.8,1.8h0s2.7,0,2.7,0h0c0,.1-2.8.1-2.8.1Z"/>
        <path class="st5" d="M71.6,67.4h0c0,0,2.4-3,2.4-3h.1l-2.4,2.9h0s3.4,0,3.4,0h0c0,.1-3.5.1-3.5.1ZM74,68.7v-1.2h0v-1.2h.1v2.5h-.1Z"/>
        <path class="st5" d="M76,68.7v-4.2h1.6c.4,0,.7,0,1,.3.2.2.4.4.4.8s-.1.6-.4.8c-.2.2-.5.3-.9.3h.1c.5,0,.8,0,1,.2.2.2.4.5.4.8s-.1.6-.4.8c-.2.2-.6.3-1.1.3h-1.7ZM76.1,66.5h1.5c.4,0,.7,0,.9-.2s.3-.4.3-.7-.1-.5-.3-.7-.5-.2-.9-.2h-1.5v1.9ZM76.1,68.6h1.6c.4,0,.8,0,1-.2.2-.2.3-.4.3-.7s-.1-.6-.3-.7c-.2-.2-.6-.2-1-.2h-1.6v2Z"/>
        <path class="st5" d="M79.7,68.8h0c0-.1,3-.1,3-.1h0c0,.1-3,.1-3,.1Z"/>
        <path class="st5" d="M82.9,68.7h0c0,0,1.8-1.9,1.8-1.9.2-.2.3-.3.4-.5,0-.1.2-.3.2-.4s0-.2,0-.4c0-.3,0-.5-.3-.7s-.5-.3-.9-.3-.5,0-.8.1-.4.2-.5.4h0c.2-.3.3-.4.6-.5.2,0,.5-.1.8-.1s.5,0,.7.1.3.2.4.4c.1.2.2.4.2.6s0,.3,0,.4-.1.3-.2.4c0,.1-.2.3-.4.5l-1.8,1.8h0s2.7,0,2.7,0h0c0,.1-2.8.1-2.8.1Z"/>
      </g>
    </g>
    <g class="st4">
      <g class="st4">
        <path class="st5" d="M48.1,80c-.3,0-.6,0-.9-.2-.3-.1-.5-.3-.7-.4-.2-.2-.3-.4-.5-.7s-.2-.5-.2-.8,0-.6.2-.8c.1-.3.3-.5.5-.7.2-.2.4-.3.7-.4.3-.1.6-.2.9-.2s.6,0,.8.1.5.2.6.4h0c-.2-.1-.4-.2-.6-.3s-.5-.1-.7-.1-.6,0-.8.2c-.2.1-.5.2-.7.4-.2.2-.3.4-.4.6s-.2.5-.2.8,0,.5.2.8c.1.2.2.5.4.6.2.2.4.3.7.4s.5.2.8.2.5,0,.7-.1.4-.2.6-.4h0c-.2.3-.4.4-.6.5s-.5.1-.8.1ZM49.4,79.5v-1.5h.1v1.5h-.1Z"/>
        <path class="st5" d="M51,80v-4.2h.1l3.1,4.1h0v-4.1h.1v4.2h-.1l-3.1-4.1h0v4.1h-.1Z"/>
        <path class="st5" d="M55.9,80v-4.2h1.6c.4,0,.8,0,1.2.3.3.2.6.4.8.7.2.3.3.7.3,1.1s0,.8-.3,1.1c-.2.3-.4.6-.8.7-.3.2-.7.3-1.2.3h-1.6ZM56,79.9h1.5c.4,0,.8,0,1.1-.3.3-.2.6-.4.7-.7.2-.3.3-.6.3-1s0-.7-.3-1c-.2-.3-.4-.5-.7-.7-.3-.2-.7-.3-1.1-.3h-1.5v4Z"/>
      </g>
    </g>
    <g class="st4">
      <g class="st4">
        <path class="st5" d="M36,80v-4.1h0s-1.1,0-1.1,0h0c0-.1,1.2-.1,1.2-.1v4.2h-.1Z"/>
        <path class="st5" d="M38,80v-4.1h0s-1.1,0-1.1,0h0c0-.1,1.2-.1,1.2-.1v4.2h-.1Z"/>
      </g>
    </g>
    <g class="st4">
      <g class="st4">
        <path class="st5" d="M89.5,80v-4.1h0s-1.1,0-1.1,0h0c0-.1,1.2-.1,1.2-.1v4.2h-.1Z"/>
        <path class="st5" d="M90.6,80h0c0,0,1.8-1.9,1.8-1.9.2-.2.3-.3.4-.5,0-.1.2-.3.2-.4s0-.2,0-.4c0-.3,0-.5-.3-.7s-.5-.3-.9-.3-.5,0-.8.1-.4.2-.5.4h0c.2-.3.3-.4.6-.5.2,0,.5-.1.8-.1s.5,0,.7.1c.2,0,.3.2.4.4.1.2.2.4.2.6s0,.3,0,.4c0,.1-.1.3-.2.4,0,.1-.2.3-.4.5l-1.8,1.8h0s2.7,0,2.7,0h0c0,.1-2.8.1-2.8.1Z"/>
      </g>
    </g>
    <g class="st4">
      <g class="st4">
        <path class="st5" d="M71.1,80c-.3,0-.6,0-.9-.2-.3-.1-.5-.3-.7-.4-.2-.2-.3-.4-.5-.7-.1-.3-.2-.5-.2-.8s0-.6.2-.8c.1-.3.3-.5.5-.7.2-.2.4-.3.7-.4.3-.1.6-.2.9-.2s.6,0,.8.1.5.2.6.4h0c-.2-.1-.4-.2-.6-.3-.2,0-.5-.1-.7-.1s-.6,0-.8.2c-.2.1-.5.2-.7.4-.2.2-.3.4-.4.6-.1.2-.2.5-.2.8s0,.5.2.8c.1.2.2.5.4.6.2.2.4.3.7.4s.5.2.8.2.5,0,.7-.1c.2,0,.4-.2.6-.4h0c-.2.3-.4.4-.6.5s-.5.1-.8.1ZM72.4,79.5v-1.5h.1v1.5h-.1Z"/>
        <path class="st5" d="M74,80v-4.2h.1l3.1,4.1h0v-4.1h.1v4.2h-.1l-3.1-4.1h0v4.1h-.1Z"/>
        <path class="st5" d="M78.9,80v-4.2h1.6c.4,0,.8,0,1.2.3.3.2.6.4.8.7.2.3.3.7.3,1.1s0,.8-.3,1.1c-.2.3-.4.6-.8.7-.3.2-.7.3-1.2.3h-1.6ZM79,79.9h1.5c.4,0,.8,0,1.1-.3s.6-.4.7-.7c.2-.3.3-.6.3-1s0-.7-.3-1c-.2-.3-.4-.5-.7-.7s-.7-.3-1.1-.3h-1.5v4Z"/>
      </g>
    </g>
    <g class="st4">
      <g class="st4">
        <path class="st5" d="M48.1,91.4c-.3,0-.6,0-.9-.2-.3-.1-.5-.3-.7-.4-.2-.2-.3-.4-.5-.7s-.2-.5-.2-.8,0-.6.2-.8c.1-.3.3-.5.5-.7.2-.2.4-.3.7-.4.3-.1.6-.2.9-.2s.6,0,.8.1.5.2.6.4h0c-.2-.1-.4-.2-.6-.3s-.5-.1-.7-.1-.6,0-.8.2c-.2.1-.5.2-.7.4-.2.2-.3.4-.4.6s-.2.5-.2.8,0,.5.2.8c.1.2.2.5.4.6.2.2.4.3.7.4s.5.2.8.2.5,0,.7-.1.4-.2.6-.4h0c-.2.3-.4.4-.6.5s-.5.1-.8.1ZM49.4,90.8v-1.5h.1v1.5h-.1Z"/>
        <path class="st5" d="M51,91.4v-4.2h.1l3.1,4.1h0v-4.1h.1v4.2h-.1l-3.1-4.1h0v4.1h-.1Z"/>
        <path class="st5" d="M55.9,91.4v-4.2h1.6c.4,0,.8,0,1.2.3.3.2.6.4.8.7.2.3.3.7.3,1.1s0,.8-.3,1.1c-.2.3-.4.6-.8.7-.3.2-.7.3-1.2.3h-1.6ZM56,91.2h1.5c.4,0,.8,0,1.1-.3.3-.2.6-.4.7-.7.2-.3.3-.6.3-1s0-.7-.3-1c-.2-.3-.4-.5-.7-.7-.3-.2-.7-.3-1.1-.3h-1.5v4Z"/>
      </g>
    </g>
    <g class="st4">
      <g class="st4">
        <path class="st5" d="M35.4,91.4v-4.1h0s-1.1,0-1.1,0h0c0-.1,1.2-.1,1.2-.1v4.2h-.1Z"/>
        <path class="st5" d="M37.8,91.4c-.3,0-.6,0-.9-.2-.3-.1-.5-.3-.6-.4h0c.1,0,.3.2.5.3.2.1.5.2.8.2s.7,0,.9-.3c.2-.2.3-.4.3-.8s-.1-.6-.3-.8c-.2-.2-.6-.3-1-.3h-.2c0,0,1.4-1.9,1.4-1.9h0s-2.4,0-2.4,0h0c0-.1,2.5-.1,2.5-.1h0c0,0-1.4,1.9-1.4,1.9h0s0,0,0,0c.5,0,.9.1,1.1.3.2.2.4.5.4.8s0,.4-.2.6-.3.3-.5.4-.5.1-.8.1Z"/>
      </g>
    </g>
    <g class="st4">
      <g class="st4">
        <path class="st5" d="M89.2,91.4v-4.1h0s-1.1,0-1.1,0h0c0-.1,1.2-.1,1.2-.1v4.2h-.1Z"/>
        <path class="st5" d="M90.4,90.1h0c0,0,2.4-3,2.4-3h.1l-2.4,2.9h0s3.4,0,3.4,0h0c0,.1-3.5.1-3.5.1ZM92.8,91.4v-1.2h0v-1.2h.1v2.5h-.1Z"/>
      </g>
    </g>
    <g class="st4">
      <g class="st4">
        <path class="st5" d="M71.1,91.4c-.3,0-.6,0-.9-.2-.3-.1-.5-.3-.7-.4-.2-.2-.3-.4-.5-.7-.1-.3-.2-.5-.2-.8s0-.6.2-.8c.1-.3.3-.5.5-.7.2-.2.4-.3.7-.4.3-.1.6-.2.9-.2s.6,0,.8.1.5.2.6.4h0c-.2-.1-.4-.2-.6-.3-.2,0-.5-.1-.7-.1s-.6,0-.8.2c-.2.1-.5.2-.7.4-.2.2-.3.4-.4.6-.1.2-.2.5-.2.8s0,.5.2.8c.1.2.2.5.4.6.2.2.4.3.7.4s.5.2.8.2.5,0,.7-.1c.2,0,.4-.2.6-.4h0c-.2.3-.4.4-.6.5s-.5.1-.8.1ZM72.4,90.8v-1.5h.1v1.5h-.1Z"/>
        <path class="st5" d="M74,91.4v-4.2h.1l3.1,4.1h0v-4.1h.1v4.2h-.1l-3.1-4.1h0v4.1h-.1Z"/>
        <path class="st5" d="M78.9,91.4v-4.2h1.6c.4,0,.8,0,1.2.3.3.2.6.4.8.7.2.3.3.7.3,1.1s0,.8-.3,1.1c-.2.3-.4.6-.8.7-.3.2-.7.3-1.2.3h-1.6ZM79,91.2h1.5c.4,0,.8,0,1.1-.3s.6-.4.7-.7c.2-.3.3-.6.3-1s0-.7-.3-1c-.2-.3-.4-.5-.7-.7s-.7-.3-1.1-.3h-1.5v4Z"/>
      </g>
    </g>
    <g class="st4">
      <g class="st4">
        <path class="st5" d="M49.5,102.7h-.1v-4.2h2.7c0,.1-2.6.1-2.6.1v4.1ZM49.4,100.6h2.3c0,.1-2.3.1-2.3.1h0Z"/>
        <path class="st5" d="M54.8,102.7c-.3,0-.6,0-.9-.2-.3-.1-.5-.3-.7-.4-.2-.2-.3-.4-.5-.7s-.2-.5-.2-.8,0-.6.2-.8c.1-.3.3-.5.5-.7.2-.2.4-.3.7-.4.3-.1.6-.2.9-.2s.6,0,.8.1.5.2.6.4h0c-.2-.1-.4-.2-.6-.3s-.5-.1-.7-.1-.6,0-.8.2c-.2.1-.5.2-.7.4-.2.2-.3.4-.4.6s-.2.5-.2.8,0,.5.2.8c.1.2.2.5.4.6.2.2.4.3.7.4s.5.2.8.2.5,0,.7-.1.4-.2.6-.4h0c-.2.3-.4.4-.6.5s-.5.1-.8.1ZM56.2,102.2v-1.5h.1v1.5h-.1Z"/>
      </g>
    </g>
    <g class="st4">
      <g class="st4">
        <path class="st5" d="M35.4,102.7v-4.1h0s-1.1,0-1.1,0h0c0-.1,1.2-.1,1.2-.1v4.2h-.1Z"/>
        <path class="st5" d="M37.9,102.7c-.3,0-.6,0-.8-.2-.3-.1-.5-.3-.6-.4h0c.1,0,.3.2.5.3.2.1.5.2.8.2.4,0,.8-.1,1-.3s.3-.5.3-.8,0-.4-.2-.6-.3-.3-.5-.4c-.2,0-.6-.1-1-.1h-.8l.2-1.9h2.1c0,.1-2.1.1-2.1.1h0s-.2,1.8-.2,1.8h0c0,0,.7,0,.7,0,.4,0,.8,0,1,.1.3,0,.4.2.5.4.1.2.2.4.2.6s0,.4-.2.6c-.1.2-.3.3-.5.4-.2.1-.5.2-.8.2Z"/>
      </g>
    </g>
    <g class="st4">
      <g class="st4">
        <path class="st5" d="M89.3,102.7v-4.1h0s-1.1,0-1.1,0h0c0-.1,1.2-.1,1.2-.1v4.2h-.1Z"/>
        <path class="st5" d="M92.2,102.7c-.4,0-.7,0-.9-.3s-.4-.4-.5-.7c-.1-.3-.2-.7-.2-1.1s0-.9.2-1.2c.1-.3.4-.5.6-.7.3-.2.6-.2.9-.2s.3,0,.5,0c.2,0,.3,0,.4.2h0c-.1,0-.2,0-.4,0-.1,0-.3,0-.5,0-.5,0-.9.2-1.2.5-.3.3-.5.8-.5,1.5s0,.2,0,.4c0,.2,0,.3,0,.5h0c0-.2,0-.4.2-.6.1-.2.3-.3.5-.4.2,0,.4-.1.7-.1s.5,0,.7.1c.2.1.4.2.5.4.1.2.2.4.2.6s0,.5-.2.6c-.1.2-.3.3-.5.4-.2.1-.4.2-.7.2ZM92.2,102.6c.2,0,.5,0,.6-.1.2,0,.3-.2.4-.4s.2-.4.2-.6c0-.3-.1-.6-.3-.8-.2-.2-.5-.3-.9-.3s-.5,0-.7.2c-.2,0-.3.2-.5.4-.1.2-.2.4-.2.6s0,.3.1.5c.1.2.2.3.4.4.2.1.4.2.7.2Z"/>
      </g>
    </g>
    <g class="st4">
      <g class="st4">
        <path class="st5" d="M72.5,102.7h-.1v-4.2h2.7c0,.1-2.6.1-2.6.1v4.1ZM72.5,100.6h2.3c0,.1-2.3.1-2.3.1h0Z"/>
        <path class="st5" d="M77.9,102.7c-.3,0-.6,0-.9-.2-.3-.1-.5-.3-.7-.4-.2-.2-.3-.4-.5-.7-.1-.3-.2-.5-.2-.8s0-.6.2-.8c.1-.3.3-.5.5-.7.2-.2.4-.3.7-.4.3-.1.6-.2.9-.2s.6,0,.8.1.5.2.6.4h0c-.2-.1-.4-.2-.6-.3-.2,0-.5-.1-.7-.1s-.6,0-.8.2c-.2.1-.5.2-.7.4-.2.2-.3.4-.4.6-.1.2-.2.5-.2.8s0,.5.2.8c.1.2.2.5.4.6.2.2.4.3.7.4s.5.2.8.2.5,0,.7-.1c.2,0,.4-.2.6-.4h0c-.2.3-.4.4-.6.5s-.5.1-.8.1ZM79.2,102.2v-1.5h.1v1.5h-.1Z"/>
      </g>
    </g>
    <g class="st4">
      <g class="st4">
        <path class="st5" d="M49.5,114h-.1v-4.2h2.7c0,.1-2.6.1-2.6.1v4.1ZM49.4,112h2.3c0,.1-2.3.1-2.3.1h0Z"/>
        <path class="st5" d="M54.8,114.1c-.3,0-.6,0-.9-.2-.3-.1-.5-.3-.7-.4-.2-.2-.3-.4-.5-.7s-.2-.5-.2-.8,0-.6.2-.8c.1-.3.3-.5.5-.7.2-.2.4-.3.7-.4.3-.1.6-.2.9-.2s.6,0,.8.1.5.2.6.4h0c-.2-.1-.4-.2-.6-.3s-.5-.1-.7-.1-.6,0-.8.2c-.2.1-.5.2-.7.4-.2.2-.3.4-.4.6s-.2.5-.2.8,0,.5.2.8c.1.2.2.5.4.6.2.2.4.3.7.4s.5.2.8.2.5,0,.7-.1.4-.2.6-.4h0c-.2.3-.4.4-.6.5s-.5.1-.8.1ZM56.2,113.5v-1.5h.1v1.5h-.1Z"/>
      </g>
    </g>
    <g class="st4">
      <g class="st4">
        <path class="st5" d="M35.3,114v-4.1h0s-1.1,0-1.1,0h0c0-.1,1.2-.1,1.2-.1v4.2h-.1Z"/>
        <path class="st5" d="M37.3,114l1.9-4.1h0s-2.8,0-2.8,0h0s0,.8,0,.8h-.1v-1h2.9c0,0-1.9,4.2-1.9,4.2h-.1Z"/>
      </g>
    </g>
    <g class="st4">
      <g class="st4">
        <path class="st5" d="M89.2,114v-4.1h0s-1.1,0-1.1,0h0c0-.1,1.2-.1,1.2-.1v4.2h-.1Z"/>
        <path class="st5" d="M92,114.1c-.3,0-.6,0-.8-.1-.2,0-.4-.2-.5-.4s-.2-.4-.2-.6,0-.4.2-.6.3-.3.5-.4c.2,0,.5-.1.8-.1s.6,0,.8.1c.2,0,.4.2.5.4s.2.4.2.6,0,.4-.2.6-.3.3-.5.4c-.2,0-.5.1-.8.1ZM92,113.9c.5,0,.8,0,1.1-.3.2-.2.4-.4.4-.8s-.1-.6-.4-.7c-.2-.2-.6-.3-1.1-.3s-.8,0-1,.3c-.2.2-.4.4-.4.7s.1.6.4.8c.2.2.6.3,1,.3ZM92,111.9c-.3,0-.5,0-.8-.1s-.4-.2-.5-.4c-.1-.2-.2-.3-.2-.5s0-.4.2-.6c.1-.2.3-.3.5-.4s.5-.1.7-.1.5,0,.7.1.4.2.5.4c.1.2.2.3.2.6s0,.4-.2.5-.3.3-.5.4-.5.1-.8.1ZM92,111.8c.4,0,.7,0,.9-.2s.3-.4.3-.7-.1-.5-.3-.7c-.2-.2-.5-.3-.9-.3s-.7,0-.9.3c-.2.2-.3.4-.3.7s.1.5.3.7.5.3.9.3Z"/>
      </g>
    </g>
    <g class="st4">
      <g class="st4">
        <path class="st5" d="M72.5,114h-.1v-4.2h2.7c0,.1-2.6.1-2.6.1v4.1ZM72.5,112h2.3c0,.1-2.3.1-2.3.1h0Z"/>
        <path class="st5" d="M77.9,114.1c-.3,0-.6,0-.9-.2-.3-.1-.5-.3-.7-.4-.2-.2-.3-.4-.5-.7-.1-.3-.2-.5-.2-.8s0-.6.2-.8c.1-.3.3-.5.5-.7.2-.2.4-.3.7-.4.3-.1.6-.2.9-.2s.6,0,.8.1.5.2.6.4h0c-.2-.1-.4-.2-.6-.3-.2,0-.5-.1-.7-.1s-.6,0-.8.2c-.2.1-.5.2-.7.4-.2.2-.3.4-.4.6-.1.2-.2.5-.2.8s0,.5.2.8c.1.2.2.5.4.6.2.2.4.3.7.4s.5.2.8.2.5,0,.7-.1c.2,0,.4-.2.6-.4h0c-.2.3-.4.4-.6.5s-.5.1-.8.1ZM79.2,113.5v-1.5h.1v1.5h-.1Z"/>
      </g>
    </g>
  </g>
  <path class="st3" d="M96.4,21.7c1.5.6,3.2.6,4.7,0"/>
  <path class="st3" d="M103.7,21.6v-5"/>
  <path class="st3" d="M103.6,13.3c0-1-.2-1.9-.4-2.9"/>
  <path class="st3" d="M99.9,10.1c-2,0-4.1,0-6.1,0"/>
  <path class="st3" d="M92.2,10.3h-4.7"/>
  <path class="st3" d="M84.3,10.6c-2.4-.4-4.9-.5-7.3-.2"/>
  <path class="st3" d="M74.3,10.7l-4.1-.2"/>
  <path class="st3" d="M68.7,10.5h-4.2"/>
  <path class="st3" d="M60.4,11.1h-3.2"/>
  <path class="st3" d="M55.4,11h-2.1"/>
  <path class="st3" d="M51.4,11l-2.8-.2"/>
  <path class="st3" d="M46.7,10.9h-3"/>
  <path class="st3" d="M41.1,11.3c-1.3,0-2.6.1-3.9.3"/>
  <path class="st3" d="M34.1,12c-.7,0-1.5,0-2.2.1"/>
  <path class="st3" d="M30.1,12.3l-1.9.5"/>
  <path class="st3" d="M28.1,13.8l-.2,1.8"/>
  <path class="st3" d="M27.8,17.4c-.3.5-.4,1.1-.3,1.7"/>
  <path class="st3" d="M27,21.9v.4"/>
  <path class="st3" d="M28.4,22.3l3.6-.3"/>
</svg>